<svg width="215" height="175" viewBox="0 0 215 175" fill="none" xmlns="http://www.w3.org/2000/svg">
<path d="M0 20.1004C0 8.99928 8.99925 0 20.1004 0H194.304C205.405 0 214.404 8.99925 214.404 20.1004V154.103C214.404 165.204 205.405 174.203 194.304 174.203H20.1004C8.99924 174.203 0 165.204 0 154.103V20.1004Z" fill="#EFF6FF" fill-opacity="0.5"/>
<path d="M174.204 154.103H40.2007V20.1003H174.204V154.103Z" stroke="#E5E7EB"/>
<path d="M73.7017 20.1003C77.4019 20.1005 80.4019 23.1003 80.4019 26.8005V53.6013C80.4017 57.3014 77.4018 60.3013 73.7017 60.3015H46.9009C43.2006 60.3015 40.2009 57.3015 40.2007 53.6013V26.8005C40.2007 23.1002 43.2005 20.1003 46.9009 20.1003H73.7017Z" fill="#E5E7EB"/>
<path d="M73.7017 20.1003C77.4019 20.1005 80.4019 23.1003 80.4019 26.8005V53.6013C80.4017 57.3014 77.4018 60.3013 73.7017 60.3015H46.9009C43.2006 60.3015 40.2009 57.3015 40.2007 53.6013V26.8005C40.2007 23.1002 43.2005 20.1003 46.9009 20.1003H73.7017Z" stroke="#E5E7EB"/>
<rect x="87.1016" y="20.1003" width="40.2008" height="40.2008" rx="4" fill="url(#paint0_linear_2120_1179)"/>
<path d="M167.503 20.1003C171.204 20.1005 174.204 23.1003 174.204 26.8005V53.6013C174.203 57.3014 171.204 60.3013 167.503 60.3015H140.703C137.002 60.3015 134.003 57.3015 134.002 53.6013V26.8005C134.002 23.1002 137.002 20.1003 140.703 20.1003H167.503Z" fill="#E5E7EB"/>
<path d="M167.503 20.1003C171.204 20.1005 174.204 23.1003 174.204 26.8005V53.6013C174.203 57.3014 171.204 60.3013 167.503 60.3015H140.703C137.002 60.3015 134.003 57.3015 134.002 53.6013V26.8005C134.002 23.1002 137.002 20.1003 140.703 20.1003H167.503Z" stroke="#E5E7EB"/>
<path d="M40.2007 71.0012C40.2007 68.7921 41.9915 67.0012 44.2007 67.0012H76.4015C78.6106 67.0012 80.4015 68.7921 80.4015 71.0012V103.202C80.4015 105.411 78.6106 107.202 76.4015 107.202H44.2007C41.9915 107.202 40.2007 105.411 40.2007 103.202V71.0012Z" fill="url(#paint1_linear_2120_1179)"/>
<path d="M120.603 67.0012C124.303 67.0014 127.303 70.0011 127.303 73.7014V100.502C127.303 104.202 124.303 107.202 120.603 107.202H93.8018C90.1015 107.202 87.1017 104.202 87.1016 100.502V73.7014C87.1016 70.001 90.1014 67.0012 93.8018 67.0012H120.603Z" fill="#E5E7EB"/>
<path d="M120.603 67.0012C124.303 67.0014 127.303 70.0011 127.303 73.7014V100.502C127.303 104.202 124.303 107.202 120.603 107.202H93.8018C90.1015 107.202 87.1017 104.202 87.1016 100.502V73.7014C87.1016 70.001 90.1014 67.0012 93.8018 67.0012H120.603Z" stroke="#E5E7EB"/>
<path d="M134.002 71.0012C134.002 68.7921 135.793 67.0012 138.002 67.0012H170.203C172.412 67.0012 174.203 68.7921 174.203 71.0012V103.202C174.203 105.411 172.412 107.202 170.203 107.202H138.002C135.793 107.202 134.002 105.411 134.002 103.202V71.0012Z" fill="url(#paint2_linear_2120_1179)"/>
<path d="M73.7017 113.902C77.4019 113.902 80.4019 116.902 80.4019 120.602V147.403C80.4017 151.103 77.4018 154.103 73.7017 154.103H46.9009C43.2006 154.103 40.2009 151.103 40.2007 147.403V120.602C40.2007 116.902 43.2005 113.902 46.9009 113.902H73.7017Z" fill="#E5E7EB"/>
<path d="M73.7017 113.902C77.4019 113.902 80.4019 116.902 80.4019 120.602V147.403C80.4017 151.103 77.4018 154.103 73.7017 154.103H46.9009C43.2006 154.103 40.2009 151.103 40.2007 147.403V120.602C40.2007 116.902 43.2005 113.902 46.9009 113.902H73.7017Z" stroke="#E5E7EB"/>
<path d="M120.603 113.902C124.303 113.902 127.303 116.902 127.303 120.602V147.403C127.303 151.103 124.303 154.103 120.603 154.103H93.8018C90.1015 154.103 87.1017 151.103 87.1016 147.403V120.602C87.1016 116.902 90.1014 113.902 93.8018 113.902H120.603Z" fill="#E5E7EB"/>
<path d="M120.603 113.902C124.303 113.902 127.303 116.902 127.303 120.602V147.403C127.303 151.103 124.303 154.103 120.603 154.103H93.8018C90.1015 154.103 87.1017 151.103 87.1016 147.403V120.602C87.1016 116.902 90.1014 113.902 93.8018 113.902H120.603Z" stroke="#E5E7EB"/>
<path d="M167.503 113.902C171.204 113.902 174.204 116.902 174.204 120.602V147.403C174.203 151.103 171.204 154.103 167.503 154.103H140.703C137.002 154.103 134.003 151.103 134.002 147.403V120.602C134.002 116.902 137.002 113.902 140.703 113.902H167.503Z" fill="#E5E7EB"/>
<path d="M167.503 113.902C171.204 113.902 174.204 116.902 174.204 120.602V147.403C174.203 151.103 171.204 154.103 167.503 154.103H140.703C137.002 154.103 134.003 151.103 134.002 147.403V120.602C134.002 116.902 137.002 113.902 140.703 113.902H167.503Z" stroke="#E5E7EB"/>
<defs>
<linearGradient id="paint0_linear_2120_1179" x1="151.426" y1="40.2007" x2="111.731" y2="74.2479" gradientUnits="userSpaceOnUse">
<stop stop-color="#1B9DD9"/>
<stop offset="1" stop-color="#063482"/>
</linearGradient>
<linearGradient id="paint1_linear_2120_1179" x1="104.525" y1="87.1016" x2="64.8298" y2="121.149" gradientUnits="userSpaceOnUse">
<stop stop-color="#1B9DD9"/>
<stop offset="1" stop-color="#063482"/>
</linearGradient>
<linearGradient id="paint2_linear_2120_1179" x1="198.327" y1="87.1016" x2="158.632" y2="121.149" gradientUnits="userSpaceOnUse">
<stop stop-color="#1B9DD9"/>
<stop offset="1" stop-color="#063482"/>
</linearGradient>
</defs>
</svg>
