<svg width="258" height="176" viewBox="0 0 258 176" fill="none" xmlns="http://www.w3.org/2000/svg">
<path d="M220.274 32.262C220.276 32.2592 220.275 32.2544 220.271 32.2539C217.136 31.8169 210.929 34.5383 209.306 30.7056C208.085 27.8111 210.023 25.5447 212.917 25.142C218.259 24.3983 224.23 24.7142 229.648 23.7653C230.049 23.6951 230.459 23.6683 230.859 23.7458C233.692 24.2949 234.16 26.2457 234.109 28.9484C234.102 29.2854 234.041 29.6185 233.959 29.9454C232.743 34.7894 233.891 42.7749 232.155 46.939C230.995 49.7174 227.569 49.6286 225.884 47.3281C224.628 45.6147 225.46 41.5119 225.542 39.2797C225.582 38.2722 224.627 38.3782 223.913 39.0904L193.915 69.0314C193.757 69.1892 193.603 69.3559 193.506 69.5569C192.746 71.1248 194.604 72.8846 195.132 74.5112C200.052 89.6592 188.423 103.374 172.644 101.087C170.31 100.748 168.341 99.399 166.349 98.7437C165.27 98.3886 164.146 98.8492 163.342 99.6523L144.436 118.546C143.195 119.786 142.948 121.682 143.555 123.327C148.891 137.8 135.727 150.836 121.291 145.578C119.648 144.979 117.758 145.23 116.522 146.467L97.3913 165.628C97.0508 165.969 96.7467 166.377 96.7792 166.858C96.8668 168.151 97.954 170.152 98.1117 171.543C98.9648 179.175 93.3549 186.411 85.5884 187.032C82.9234 187.246 80.9023 186.098 78.6932 185.824C77.7608 185.708 76.8773 186.154 76.2122 186.817L54.2085 208.768C53.0005 210.263 54.5019 211.833 54.7067 213.43C56.1671 224.899 42.1288 232.074 34.0688 223.861C26.548 216.195 32.0419 203.191 42.7498 203.204C44.6948 203.204 46.8514 204.331 47.957 204.358C49.5607 204.39 66.7033 185.564 71.5788 181.122C72.1004 180.647 72.5454 180.052 72.3916 179.363C72.1261 178.173 71.2831 176.549 71.1473 175.543C69.6852 164.768 79.2982 157.627 88.8985 160.301C90.5322 160.756 92.3477 160.494 93.5462 159.294L112.755 140.062C113.095 139.722 113.417 139.32 113.408 138.839C113.383 137.599 112.182 136.153 111.822 134.864C108.56 123.198 117.78 111.538 129.983 113.129C131.588 113.34 135.145 115.015 136.789 115.315C137.261 115.401 137.677 115.14 138.016 114.801L158.205 94.6258C159.173 93.6584 159.596 92.248 159.005 91.0134C158.485 89.9252 157.86 88.8737 157.473 87.6659C152.689 72.6885 166.29 58.2846 181.482 62.1143C182.78 62.4387 185.979 64.3008 187.439 64.6932C187.854 64.805 188.229 64.573 188.532 64.2674L220.274 32.262ZM185.359 90.3146C196.94 78.7573 178.991 60.8104 167.464 72.6681C156.135 84.3141 173.627 102.022 185.359 90.3146ZM121.35 136.824C130.317 145.206 143.121 132.147 134.958 123.464C126.12 114.05 112.191 128.27 121.35 136.824ZM83.2407 167.256C75.6858 168.71 77.5148 181.052 86.0661 179.298C93.4777 177.776 91.4576 165.679 83.2407 167.256ZM41.8694 210.679C35.9524 211.512 37.0648 221.267 44.1762 219.67C48.7555 218.639 48.3119 209.771 41.8694 210.679Z" fill="url(#paint0_linear_2120_1507)"/>
<path d="M122.251 37.4091C122.247 37.4091 122.243 37.4118 122.242 37.4156L113.158 66.8083C113.055 67.1408 112.977 67.4933 113.09 67.8223C113.635 69.4035 116.558 71.6722 117.507 73.4735C123.246 84.344 113.656 95.7877 102.577 94.0351C100.834 93.7593 98.9767 94.25 97.9171 95.6614L85.6647 111.983C84.7384 113.216 84.6513 114.86 85.1408 116.323C87.7223 124.041 83.275 131.634 74.4369 132.297C73.1606 132.393 71.277 131.007 70.0759 132.639L53.3424 154.918C53.0933 155.25 52.8713 155.626 52.9269 156.038C53.0708 157.103 54.0512 158.605 54.2085 159.774C55.6212 170.048 42.627 175.393 36.6622 167.625C31.2115 160.525 36.6394 151.823 44.4977 151.274C45.9601 151.172 47.4137 150.623 48.2839 149.443L63.2454 129.161C64.1968 127.871 64.2265 126.153 63.693 124.642C60.8491 116.586 67.1976 108.837 75.6502 109.292C77.2524 109.378 78.8924 108.856 79.8579 107.575L92.1447 91.2666C93.1812 89.8909 93.1706 88.0228 92.4464 86.4601C88.3699 77.6648 93.3972 67.8439 102.875 66.1664C104.597 65.8617 106.161 64.7811 106.686 63.1131L114.574 38.0628C115.133 36.2888 114.348 34.3931 112.915 33.2077C97.8038 20.7085 115.736 -4.95104 133.095 7.29742C147.045 17.1412 138.992 38.3648 122.251 37.4091Z" fill="url(#paint1_linear_2120_1507)"/>
<path d="M223.202 132.182C226.469 118.766 245.884 114.096 253.578 127.45C263.547 144.754 241.241 160.021 228.413 148.237C226.182 146.187 223.135 144.906 220.243 145.809L194.278 153.914C194.487 164.438 184.715 170.903 175.579 168.004C172.817 167.128 169.677 167.019 167.358 168.758L154.188 178.636C151.892 180.358 151.154 183.401 150.863 186.256C150.217 192.588 144.358 197.824 137.497 196.556C136.303 196.337 133.859 194.924 133.177 194.931C131.541 194.947 119.818 205.002 113.079 210.05C110.752 211.794 109.39 214.785 108.541 217.567C106.821 223.205 101.206 227.011 94.9111 224.339C84.5855 219.957 88.8025 203.505 100.964 205.512C102.003 205.684 102.907 206.478 103.783 206.751C104.433 206.954 105.071 206.562 105.619 206.157L125.031 191.817C127.285 190.151 128.068 187.234 128.219 184.436C128.604 177.311 135.082 172.685 142.165 174.1C144.74 174.614 147.546 174.549 149.636 172.958L162.955 162.815C165.33 161.006 166.028 157.822 166.005 154.837C165.923 144.323 178.302 136.084 188.061 142.913C189.316 143.796 190.595 145.925 192.04 146.54C192.571 146.767 193.165 146.622 193.717 146.451L217.699 139.035C220.674 138.116 222.466 135.207 223.202 132.182Z" fill="#E5E7EB"/>
<path d="M223.202 132.182C226.469 118.766 245.884 114.096 253.578 127.45C263.547 144.754 241.241 160.021 228.413 148.237C226.182 146.187 223.135 144.906 220.243 145.809L194.278 153.914C194.487 164.438 184.715 170.903 175.579 168.004C172.817 167.128 169.677 167.019 167.358 168.758L154.188 178.636C151.892 180.358 151.154 183.401 150.863 186.256C150.217 192.588 144.358 197.824 137.497 196.556C136.303 196.337 133.859 194.924 133.177 194.931C131.541 194.947 119.818 205.002 113.079 210.05C110.752 211.794 109.39 214.785 108.541 217.567C106.821 223.205 101.206 227.011 94.9111 224.339C84.5855 219.957 88.8025 203.505 100.964 205.512C102.003 205.684 102.907 206.478 103.783 206.751C104.433 206.954 105.071 206.562 105.619 206.157L125.031 191.817C127.285 190.151 128.068 187.234 128.219 184.436C128.604 177.311 135.082 172.685 142.165 174.1C144.74 174.614 147.546 174.549 149.636 172.958L162.955 162.815C165.33 161.006 166.028 157.822 166.005 154.837C165.923 144.323 178.302 136.084 188.061 142.913C189.316 143.796 190.595 145.925 192.04 146.54C192.571 146.767 193.165 146.622 193.717 146.451L217.699 139.035C220.674 138.116 222.466 135.207 223.202 132.182Z" stroke="#E5E7EB"/>
<path d="M57.8256 29.1832L59.0336 29.0603C64.4797 34.3713 69.8916 39.7438 75.2559 45.1708L75.2013 46.5566C73.3995 50.0723 72.5192 51.2191 68.5608 52.6868L66.9161 52.5162C61.9204 47.6693 56.9247 42.8225 51.9222 37.9757L51.697 36.3373C53.021 32.378 53.9765 31.0878 57.8256 29.1832Z" fill="#3B83E3"/>
<path d="M64.426 35.7866C61.1845 32.5443 62.4023 26.9331 66.8967 27.8384C71.8491 28.8361 75.6976 32.696 76.637 37.6313C77.4872 42.0985 71.8999 43.2623 68.6848 40.0464L64.426 35.7866Z" fill="#E5E7EB"/>
<path d="M64.426 35.7866C61.1845 32.5443 62.4023 26.9331 66.8967 27.8384C71.8491 28.8361 75.6976 32.696 76.637 37.6313C77.4872 42.0985 71.8999 43.2623 68.6848 40.0464L64.426 35.7866Z" stroke="#E5E7EB"/>
<path d="M54.7611 93.0518C54.3994 93.2566 53.8466 93.5433 53.6146 93.3317C49.9907 90.0959 42.4699 82.696 39.7332 78.9687L39.9447 77.7195C50.2705 70.7701 62.3707 83.0373 54.7611 93.0518Z" fill="#4D74E9"/>
<path d="M54.7611 93.052C52.8297 95.5915 51.2669 96.4926 48.1207 97.1411C46.2439 96.2537 44.4899 94.6836 42.8657 92.4172C39.7877 90.0552 37.4537 87.3724 35.8635 84.3687C36.5187 81.4333 37.3923 79.4468 39.9515 77.7266L54.7679 93.0589L54.7611 93.052Z" fill="#4F71EA"/>
<path d="M68.5541 52.6869C57.8666 56.6462 48.0391 47.2598 51.6971 36.3374L68.5541 52.6869Z" fill="#3F7FE5"/>
<path d="M48.1209 97.141C40.4705 98.7111 34.1849 91.871 35.8638 84.3687C39.5491 87.8638 43.4392 91.3249 46.8584 95.0931C47.4316 95.728 48.1346 96.1375 48.1278 97.1479L48.1209 97.141Z" fill="#526FEB"/>
<rect x="34.4568" y="72.3677" width="25" height="25" rx="12.5" fill="#E5E7EB"/>
<rect x="34.4568" y="72.3677" width="25" height="25" rx="12.5" stroke="#E5E7EB"/>
<rect x="46.9568" y="22.8735" width="36" height="36" rx="18" fill="#E5E7EB"/>
<rect x="46.9568" y="22.8735" width="36" height="36" rx="18" stroke="#E5E7EB"/>
<defs>
<linearGradient id="paint0_linear_2120_1507" x1="356.242" y1="125.526" x2="155.093" y2="297.865" gradientUnits="userSpaceOnUse">
<stop stop-color="#1B9DD9"/>
<stop offset="1" stop-color="#063482"/>
</linearGradient>
<linearGradient id="paint1_linear_2120_1507" x1="203.7" y1="87.6968" x2="63.6323" y2="163.671" gradientUnits="userSpaceOnUse">
<stop stop-color="#1B9DD9"/>
<stop offset="1" stop-color="#063482"/>
</linearGradient>
</defs>
</svg>
