<svg width="541" height="103" viewBox="0 0 541 103" fill="none" xmlns="http://www.w3.org/2000/svg">
<path d="M0 22.4588C0 10.0552 10.0552 0 22.4588 0H518.541C530.945 0 541 10.0552 541 22.4588V80.5412C541 92.9448 530.945 103 518.541 103H22.4588C10.0551 103 0 92.9448 0 80.5412V22.4588Z" fill="#EFF6FF" fill-opacity="0.5"/>
<path d="M336.882 80.4773H22.4585V22.4587H336.882V80.4773Z" stroke="#E5E7EB"/>
<path d="M60.562 80.4773H22.4585V22.4587H60.562V80.4773Z" stroke="#E5E7EB"/>
<path d="M41.4961 22.4587C47.6979 22.4588 52.7256 27.4864 52.7256 33.6882C52.7255 39.89 47.6979 44.9177 41.4961 44.9177C35.2943 44.9177 30.2666 39.89 30.2666 33.6882C30.2666 27.4864 35.2943 22.4587 41.4961 22.4587Z" fill="#E5E7EB"/>
<path d="M41.4961 22.4587C47.6979 22.4588 52.7256 27.4864 52.7256 33.6882C52.7255 39.89 47.6979 44.9177 41.4961 44.9177C35.2943 44.9177 30.2666 39.89 30.2666 33.6882C30.2666 27.4864 35.2943 22.4587 41.4961 22.4587Z" stroke="#E5E7EB"/>
<path d="M25.755 59.7924V73.4038H24.1068V59.7924H25.755ZM32.7019 73.6165C31.8512 73.6165 31.1002 73.4016 30.4489 72.9718C29.7976 72.5376 29.288 71.9261 28.9203 71.1375C28.5525 70.3443 28.3686 69.4072 28.3686 68.3261C28.3686 67.2539 28.5525 66.3234 28.9203 65.5347C29.288 64.746 29.7998 64.1368 30.4555 63.707C31.1113 63.2772 31.869 63.0623 32.7285 63.0623C33.3931 63.0623 33.9182 63.1731 34.3037 63.3946C34.6936 63.6117 34.9905 63.8599 35.1943 64.139C35.4025 64.4137 35.5642 64.6397 35.6794 64.8169H35.8124V59.7924H37.3809V73.4038H35.8655V71.8353H35.6794C35.5642 72.0214 35.4003 72.2562 35.1876 72.5398C34.9749 72.8189 34.6714 73.0693 34.2771 73.2908C33.8828 73.5079 33.3577 73.6165 32.7019 73.6165ZM32.9146 72.2075C33.5438 72.2075 34.0755 72.0436 34.5097 71.7157C34.9439 71.3834 35.274 70.9248 35.5 70.3399C35.726 69.7506 35.8389 69.0705 35.8389 68.2995C35.8389 67.5374 35.7282 66.8706 35.5066 66.299C35.2851 65.723 34.9572 65.2755 34.523 64.9565C34.0888 64.633 33.5527 64.4713 32.9146 64.4713C32.25 64.4713 31.6962 64.6419 31.2531 64.9831C30.8144 65.3198 30.4843 65.7784 30.2628 66.3588C30.0457 66.9348 29.9371 67.5817 29.9371 68.2995C29.9371 69.0262 30.0479 69.6864 30.2694 70.2801C30.4954 70.8694 30.8277 71.3391 31.2664 71.6891C31.7094 72.0347 32.2589 72.2075 32.9146 72.2075ZM44.7515 73.6165C43.7679 73.6165 42.9194 73.3994 42.206 72.9652C41.4971 72.5265 40.9499 71.9151 40.5644 71.1308C40.1833 70.3421 39.9928 69.425 39.9928 68.3793C39.9928 67.3336 40.1833 66.412 40.5644 65.6145C40.9499 64.8125 41.486 64.1878 42.1728 63.7402C42.864 63.2883 43.6704 63.0623 44.592 63.0623C45.1237 63.0623 45.6487 63.1509 46.1671 63.3282C46.6855 63.5054 47.1574 63.7934 47.5828 64.1922C48.0081 64.5865 48.3471 65.1094 48.5996 65.7607C48.8522 66.412 48.9785 67.214 48.9785 68.1666V68.8312H41.1094V67.4754H47.3834C47.3834 66.8994 47.2682 66.3854 47.0378 65.9335C46.8118 65.4815 46.4884 65.1249 46.0674 64.8634C45.651 64.602 45.1591 64.4713 44.592 64.4713C43.9672 64.4713 43.4267 64.6264 42.9703 64.9366C42.5184 65.2423 42.1706 65.6411 41.9269 66.1329C41.6832 66.6247 41.5613 67.152 41.5613 67.7147V68.6185C41.5613 69.3895 41.6942 70.043 41.9601 70.5792C42.2304 71.1109 42.6048 71.5163 43.0833 71.7954C43.5618 72.0701 44.1179 72.2075 44.7515 72.2075C45.1636 72.2075 45.5358 72.1499 45.8681 72.0347C46.2048 71.9151 46.495 71.7378 46.7387 71.503C46.9824 71.2637 47.1707 70.9669 47.3036 70.6124L48.819 71.0378C48.6595 71.5517 48.3914 72.0037 48.0148 72.3936C47.6382 72.7791 47.1729 73.0804 46.6191 73.2975C46.0652 73.5101 45.4427 73.6165 44.7515 73.6165ZM54.3685 73.6431C53.7216 73.6431 53.1346 73.5212 52.6073 73.2775C52.08 73.0294 51.6613 72.6727 51.3512 72.2075C51.041 71.7378 50.8859 71.1707 50.8859 70.5061C50.8859 69.9212 51.0011 69.4471 51.2315 69.0838C51.4619 68.716 51.7699 68.428 52.1554 68.2198C52.5408 68.0115 52.9662 67.8565 53.4314 67.7545C53.9011 67.6482 54.373 67.564 54.8471 67.502C55.4674 67.4222 55.9703 67.3624 56.3558 67.3225C56.7457 67.2782 57.0292 67.2051 57.2065 67.1032C57.3881 67.0013 57.479 66.8241 57.479 66.5715V66.5183C57.479 65.8626 57.2995 65.3531 56.9406 64.9897C56.5862 64.6264 56.0478 64.4447 55.3256 64.4447C54.5768 64.4447 53.9897 64.6087 53.5644 64.9366C53.139 65.2644 52.8399 65.6145 52.6671 65.9867L51.1784 65.455C51.4442 64.8346 51.7987 64.3517 52.2418 64.0061C52.6893 63.6561 53.1767 63.4124 53.7039 63.275C54.2356 63.1332 54.7585 63.0623 55.2724 63.0623C55.6003 63.0623 55.9769 63.1022 56.4023 63.182C56.8321 63.2573 57.2463 63.4146 57.6451 63.6538C58.0483 63.8931 58.3828 64.2542 58.6487 64.7372C58.9145 65.2201 59.0475 65.867 59.0475 66.6779V73.4038H57.479V72.0214H57.3992C57.2929 72.2429 57.1156 72.48 56.8675 72.7325C56.6194 72.9851 56.2893 73.2 55.8772 73.3772C55.4652 73.5545 54.9623 73.6431 54.3685 73.6431ZM54.6078 72.2341C55.2281 72.2341 55.751 72.1122 56.1763 71.8685C56.6061 71.6248 56.9295 71.3103 57.1467 70.9248C57.3682 70.5393 57.479 70.1339 57.479 69.7085V68.2729C57.4125 68.3527 57.2663 68.4258 57.0403 68.4923C56.8188 68.5543 56.5618 68.6097 56.2694 68.6584C55.9814 68.7027 55.7 68.7426 55.4253 68.7781C55.155 68.8091 54.9357 68.8357 54.7673 68.8578C54.3597 68.911 53.9786 68.9974 53.6242 69.117C53.2741 69.2322 52.9906 69.4072 52.7735 69.6421C52.5608 69.8725 52.4544 70.187 52.4544 70.5858C52.4544 71.1308 52.656 71.5429 53.0592 71.822C53.4669 72.0967 53.9831 72.2341 54.6078 72.2341Z" fill="#6B7280"/>
<path d="M120.004 53.3396H94.5625V49.5964H120.004V53.3396Z" fill="#D1D5DB"/>
<path d="M120.004 53.3396H94.5625V49.5964H120.004V53.3396Z" stroke="#E5E7EB"/>
<path d="M201.086 80.4773H154.004V22.4587H201.086V80.4773Z" stroke="#E5E7EB"/>
<path d="M177.545 22.4587C183.747 22.4588 188.774 27.4864 188.774 33.6882C188.774 39.89 183.747 44.9177 177.545 44.9177C171.343 44.9177 166.315 39.89 166.315 33.6882C166.315 27.4864 171.343 22.4587 177.545 22.4587Z" fill="#E5E7EB"/>
<path d="M177.545 22.4587C183.747 22.4588 188.774 27.4864 188.774 33.6882C188.774 39.89 183.747 44.9177 177.545 44.9177C171.343 44.9177 166.315 39.89 166.315 33.6882C166.315 27.4864 171.343 22.4587 177.545 22.4587Z" stroke="#E5E7EB"/>
<path d="M155.652 73.4038V59.7924H160.251C161.319 59.7924 162.192 59.9851 162.87 60.3706C163.552 60.7517 164.057 61.2679 164.385 61.9192C164.713 62.5705 164.877 63.2972 164.877 64.0991C164.877 64.9011 164.713 65.63 164.385 66.2857C164.062 66.9415 163.561 67.4643 162.883 67.8542C162.205 68.2397 161.337 68.4325 160.278 68.4325H156.981V66.9703H160.225C160.956 66.9703 161.543 66.844 161.986 66.5915C162.429 66.3389 162.75 65.9977 162.95 65.5679C163.154 65.1337 163.255 64.6441 163.255 64.0991C163.255 63.5541 163.154 63.0668 162.95 62.637C162.75 62.2072 162.427 61.8704 161.979 61.6267C161.532 61.3786 160.938 61.2546 160.198 61.2546H157.3V73.4038H155.652ZM167.32 73.4038V63.1953H168.835V64.7372H168.941C169.127 64.2321 169.464 63.8222 169.951 63.5076C170.439 63.193 170.988 63.0357 171.6 63.0357C171.715 63.0357 171.859 63.038 172.032 63.0424C172.205 63.0468 172.335 63.0535 172.424 63.0623V64.6574C172.371 64.6441 172.249 64.6242 172.058 64.5976C171.872 64.5666 171.675 64.5511 171.467 64.5511C170.971 64.5511 170.527 64.6552 170.138 64.8634C169.752 65.0673 169.446 65.3508 169.22 65.7142C168.999 66.0731 168.888 66.4829 168.888 66.9437V73.4038H167.32ZM178.12 73.6165C177.198 73.6165 176.389 73.3972 175.694 72.9585C175.003 72.5199 174.462 71.9062 174.072 71.1175C173.687 70.3288 173.494 69.4072 173.494 68.3527C173.494 67.2893 173.687 66.3611 174.072 65.5679C174.462 64.7748 175.003 64.159 175.694 63.7203C176.389 63.2817 177.198 63.0623 178.12 63.0623C179.041 63.0623 179.848 63.2817 180.539 63.7203C181.234 64.159 181.775 64.7748 182.161 65.5679C182.55 66.3611 182.745 67.2893 182.745 68.3527C182.745 69.4072 182.55 70.3288 182.161 71.1175C181.775 71.9062 181.234 72.5199 180.539 72.9585C179.848 73.3972 179.041 73.6165 178.12 73.6165ZM178.12 72.2075C178.82 72.2075 179.396 72.028 179.848 71.6692C180.3 71.3103 180.634 70.8384 180.851 70.2535C181.068 69.6686 181.177 69.035 181.177 68.3527C181.177 67.6704 181.068 67.0345 180.851 66.4452C180.634 65.8559 180.3 65.3796 179.848 65.0163C179.396 64.653 178.82 64.4713 178.12 64.4713C177.42 64.4713 176.844 64.653 176.392 65.0163C175.94 65.3796 175.605 65.8559 175.388 66.4452C175.171 67.0345 175.062 67.6704 175.062 68.3527C175.062 69.035 175.171 69.6686 175.388 70.2535C175.605 70.8384 175.94 71.3103 176.392 71.6692C176.844 72.028 177.42 72.2075 178.12 72.2075ZM189.579 63.1953V64.5245H184.289V63.1953H189.579ZM185.831 60.7495H187.399V70.4795C187.399 70.9226 187.464 71.2549 187.592 71.4764C187.725 71.6935 187.893 71.8397 188.097 71.9151C188.305 71.986 188.525 72.0214 188.755 72.0214C188.928 72.0214 189.07 72.0125 189.181 71.9948C189.291 71.9727 189.38 71.9549 189.446 71.9416L189.765 73.3506C189.659 73.3905 189.511 73.4304 189.32 73.4703C189.13 73.5146 188.888 73.5367 188.596 73.5367C188.153 73.5367 187.718 73.4415 187.293 73.2509C186.872 73.0604 186.522 72.7702 186.243 72.3803C185.968 71.9904 185.831 71.4986 185.831 70.9048V60.7495ZM195.976 73.6165C195.055 73.6165 194.246 73.3972 193.55 72.9585C192.859 72.5199 192.319 71.9062 191.929 71.1175C191.543 70.3288 191.351 69.4072 191.351 68.3527C191.351 67.2893 191.543 66.3611 191.929 65.5679C192.319 64.7748 192.859 64.159 193.55 63.7203C194.246 63.2817 195.055 63.0623 195.976 63.0623C196.898 63.0623 197.704 63.2817 198.396 63.7203C199.091 64.159 199.632 64.7748 200.017 65.5679C200.407 66.3611 200.602 67.2893 200.602 68.3527C200.602 69.4072 200.407 70.3288 200.017 71.1175C199.632 71.9062 199.091 72.5199 198.396 72.9585C197.704 73.3972 196.898 73.6165 195.976 73.6165ZM195.976 72.2075C196.676 72.2075 197.252 72.028 197.704 71.6692C198.156 71.3103 198.491 70.8384 198.708 70.2535C198.925 69.6686 199.034 69.035 199.034 68.3527C199.034 67.6704 198.925 67.0345 198.708 66.4452C198.491 65.8559 198.156 65.3796 197.704 65.0163C197.252 64.653 196.676 64.4713 195.976 64.4713C195.276 64.4713 194.7 64.653 194.248 65.0163C193.796 65.3796 193.462 65.8559 193.245 66.4452C193.028 67.0345 192.919 67.6704 192.919 68.3527C192.919 69.035 193.028 69.6686 193.245 70.2535C193.462 70.8384 193.796 71.3103 194.248 71.6692C194.7 72.028 195.276 72.2075 195.976 72.2075Z" fill="#6B7280"/>
<path d="M260.527 53.3396H235.086V49.5964H260.527V53.3396Z" fill="#D1D5DB"/>
<path d="M260.527 53.3396H235.086V49.5964H260.527V53.3396Z" stroke="#E5E7EB"/>
<path d="M380.527 80.468H294.527V22.468H380.527V80.468Z" stroke="#E5E7EB"/>
<path d="M343.027 22.468C349.229 22.4681 354.257 27.4957 354.257 33.6975C354.257 39.8993 349.229 44.927 343.027 44.927C336.826 44.927 331.798 39.8993 331.798 33.6975C331.798 27.4957 336.826 22.468 343.027 22.468Z" fill="#8FBCFF"/>
<path d="M343.027 22.468C349.229 22.4681 354.257 27.4957 354.257 33.6975C354.257 39.8993 349.229 44.927 343.027 44.927C336.826 44.927 331.798 39.8993 331.798 33.6975C331.798 27.4957 336.826 22.468 343.027 22.468Z" stroke="#E5E7EB"/>
<path d="M296.176 73.4131V59.8017H300.775C301.843 59.8017 302.715 59.9944 303.393 60.3799C304.076 60.7609 304.581 61.2771 304.909 61.9285C305.237 62.5798 305.401 63.3064 305.401 64.1084C305.401 64.9104 305.237 65.6393 304.909 66.295C304.585 66.9508 304.085 67.4736 303.407 67.8635C302.729 68.249 301.86 68.4417 300.801 68.4417H297.505V66.9796H300.748C301.479 66.9796 302.066 66.8533 302.509 66.6007C302.953 66.3482 303.274 66.007 303.473 65.5772C303.677 65.143 303.779 64.6534 303.779 64.1084C303.779 63.5634 303.677 63.076 303.473 62.6462C303.274 62.2165 302.95 61.8797 302.503 61.636C302.055 61.3879 301.462 61.2638 300.722 61.2638H297.824V73.4131H296.176ZM307.843 73.4131V63.2045H309.358V64.7464H309.465C309.651 64.2413 309.988 63.8315 310.475 63.5169C310.962 63.2023 311.512 63.045 312.123 63.045C312.238 63.045 312.382 63.0472 312.555 63.0517C312.728 63.0561 312.859 63.0627 312.947 63.0716V64.6667C312.894 64.6534 312.772 64.6335 312.582 64.6069C312.396 64.5759 312.198 64.5604 311.99 64.5604C311.494 64.5604 311.051 64.6645 310.661 64.8727C310.276 65.0765 309.97 65.3601 309.744 65.7234C309.522 66.0823 309.411 66.4922 309.411 66.953V73.4131H307.843ZM318.643 73.6258C317.721 73.6258 316.913 73.4064 316.217 72.9678C315.526 72.5291 314.985 71.9155 314.596 71.1268C314.21 70.3381 314.017 69.4165 314.017 68.362C314.017 67.2986 314.21 66.3703 314.596 65.5772C314.985 64.7841 315.526 64.1682 316.217 63.7296C316.913 63.2909 317.721 63.0716 318.643 63.0716C319.565 63.0716 320.371 63.2909 321.062 63.7296C321.758 64.1682 322.298 64.7841 322.684 65.5772C323.074 66.3703 323.269 67.2986 323.269 68.362C323.269 69.4165 323.074 70.3381 322.684 71.1268C322.298 71.9155 321.758 72.5291 321.062 72.9678C320.371 73.4064 319.565 73.6258 318.643 73.6258ZM318.643 72.2168C319.343 72.2168 319.919 72.0373 320.371 71.6784C320.823 71.3195 321.158 70.8477 321.375 70.2628C321.592 69.6779 321.7 69.0443 321.7 68.362C321.7 67.6796 321.592 67.0438 321.375 66.4545C321.158 65.8652 320.823 65.3889 320.371 65.0256C319.919 64.6623 319.343 64.4806 318.643 64.4806C317.943 64.4806 317.367 64.6623 316.915 65.0256C316.463 65.3889 316.129 65.8652 315.911 66.4545C315.694 67.0438 315.586 67.6796 315.586 68.362C315.586 69.0443 315.694 69.6779 315.911 70.2628C316.129 70.8477 316.463 71.3195 316.915 71.6784C317.367 72.0373 317.943 72.2168 318.643 72.2168ZM329.518 73.6258C328.667 73.6258 327.916 73.4109 327.265 72.9811C326.614 72.5469 326.104 71.9354 325.736 71.1467C325.368 70.3536 325.185 69.4165 325.185 68.3354C325.185 67.2631 325.368 66.3327 325.736 65.544C326.104 64.7553 326.616 64.1461 327.271 63.7163C327.927 63.2865 328.685 63.0716 329.544 63.0716C330.209 63.0716 330.734 63.1824 331.12 63.4039C331.51 63.621 331.806 63.8691 332.01 64.1483C332.218 64.423 332.38 64.649 332.495 64.8262H332.628V59.8017H334.197V73.4131H332.681V71.8446H332.495C332.38 72.0307 332.216 72.2655 332.004 72.5491C331.791 72.8282 331.487 73.0786 331.093 73.3001C330.699 73.5172 330.174 73.6258 329.518 73.6258ZM329.731 72.2168C330.36 72.2168 330.891 72.0528 331.326 71.725C331.76 71.3926 332.09 70.9341 332.316 70.3492C332.542 69.7599 332.655 69.0798 332.655 68.3088C332.655 67.5467 332.544 66.8799 332.323 66.3083C332.101 65.7323 331.773 65.2848 331.339 64.9658C330.905 64.6423 330.369 64.4806 329.731 64.4806C329.066 64.4806 328.512 64.6512 328.069 64.9924C327.63 65.3291 327.3 65.7877 327.079 66.3681C326.862 66.9441 326.753 67.591 326.753 68.3088C326.753 69.0355 326.864 69.6956 327.085 70.2894C327.311 70.8787 327.644 71.3483 328.082 71.6984C328.525 72.044 329.075 72.2168 329.731 72.2168ZM343.721 69.2393V63.2045H345.289V73.4131H343.721V71.6851H343.614C343.375 72.2035 343.003 72.6443 342.498 73.0077C341.993 73.3666 341.355 73.546 340.584 73.546C339.946 73.546 339.379 73.4064 338.882 73.1273C338.386 72.8437 337.996 72.4184 337.713 71.8512C337.429 71.2797 337.287 70.5597 337.287 69.6912V63.2045H338.856V69.5849C338.856 70.3293 339.064 70.923 339.481 71.3661C339.901 71.8091 340.438 72.0307 341.089 72.0307C341.479 72.0307 341.875 71.931 342.279 71.7316C342.686 71.5322 343.027 71.2265 343.302 70.8144C343.581 70.4024 343.721 69.8773 343.721 69.2393ZM352.309 73.6258C351.352 73.6258 350.528 73.3998 349.837 72.9479C349.146 72.4959 348.614 71.8734 348.242 71.0803C347.87 70.2872 347.684 69.3811 347.684 68.362C347.684 67.3252 347.874 66.4102 348.255 65.6171C348.641 64.8196 349.177 64.197 349.864 63.7495C350.555 63.2976 351.361 63.0716 352.283 63.0716C353.001 63.0716 353.647 63.2045 354.223 63.4704C354.799 63.7362 355.271 64.1084 355.639 64.5869C356.007 65.0655 356.235 65.6237 356.324 66.2618H354.755C354.636 65.7965 354.37 65.3845 353.958 65.0256C353.55 64.6623 353.001 64.4806 352.309 64.4806C351.698 64.4806 351.162 64.6401 350.701 64.9591C350.245 65.2737 349.888 65.719 349.631 66.295C349.378 66.8666 349.252 67.5378 349.252 68.3088C349.252 69.0975 349.376 69.7843 349.624 70.3691C349.877 70.954 350.231 71.4082 350.688 71.7316C351.148 72.055 351.689 72.2168 352.309 72.2168C352.717 72.2168 353.087 72.1459 353.419 72.0041C353.752 71.8623 354.033 71.6585 354.263 71.3926C354.494 71.1268 354.658 70.8078 354.755 70.4356H356.324C356.235 71.0382 356.016 71.581 355.666 72.0639C355.32 72.5424 354.862 72.9235 354.29 73.2071C353.723 73.4862 353.063 73.6258 352.309 73.6258ZM363.056 63.2045V64.5338H357.766V63.2045H363.056ZM359.308 60.7587H360.876V70.4888C360.876 70.9318 360.941 71.2641 361.069 71.4857C361.202 71.7028 361.37 71.849 361.574 71.9243C361.782 71.9952 362.002 72.0307 362.232 72.0307C362.405 72.0307 362.547 72.0218 362.657 72.0041C362.768 71.9819 362.857 71.9642 362.923 71.9509L363.242 73.3599C363.136 73.3998 362.988 73.4397 362.797 73.4795C362.607 73.5239 362.365 73.546 362.073 73.546C361.63 73.546 361.195 73.4507 360.77 73.2602C360.349 73.0697 359.999 72.7795 359.72 72.3896C359.445 71.9997 359.308 71.5078 359.308 70.9141V60.7587ZM365.416 73.4131V63.2045H366.984V73.4131H365.416ZM366.213 61.5031C365.907 61.5031 365.644 61.399 365.422 61.1907C365.205 60.9825 365.097 60.7321 365.097 60.4397C365.097 60.1473 365.205 59.8969 365.422 59.6887C365.644 59.4804 365.907 59.3763 366.213 59.3763C366.519 59.3763 366.78 59.4804 366.997 59.6887C367.219 59.8969 367.33 60.1473 367.33 60.4397C367.33 60.7321 367.219 60.9825 366.997 61.1907C366.78 61.399 366.519 61.5031 366.213 61.5031ZM374.004 73.6258C373.083 73.6258 372.274 73.4064 371.578 72.9678C370.887 72.5291 370.347 71.9155 369.957 71.1268C369.571 70.3381 369.378 69.4165 369.378 68.362C369.378 67.2986 369.571 66.3703 369.957 65.5772C370.347 64.7841 370.887 64.1682 371.578 63.7296C372.274 63.2909 373.083 63.0716 374.004 63.0716C374.926 63.0716 375.732 63.2909 376.423 63.7296C377.119 64.1682 377.66 64.7841 378.045 65.5772C378.435 66.3703 378.63 67.2986 378.63 68.362C378.63 69.4165 378.435 70.3381 378.045 71.1268C377.66 71.9155 377.119 72.5291 376.423 72.9678C375.732 73.4064 374.926 73.6258 374.004 73.6258ZM374.004 72.2168C374.704 72.2168 375.28 72.0373 375.732 71.6784C376.184 71.3195 376.519 70.8477 376.736 70.2628C376.953 69.6779 377.061 69.0443 377.061 68.362C377.061 67.6796 376.953 67.0438 376.736 66.4545C376.519 65.8652 376.184 65.3889 375.732 65.0256C375.28 64.6623 374.704 64.4806 374.004 64.4806C373.304 64.4806 372.728 64.6623 372.276 65.0256C371.824 65.3889 371.49 65.8652 371.273 66.4545C371.056 67.0438 370.947 67.6796 370.947 68.362C370.947 69.0443 371.056 69.6779 371.273 70.2628C371.49 70.8477 371.824 71.3195 372.276 71.6784C372.728 72.0373 373.304 72.2168 374.004 72.2168ZM382.593 67.272V73.4131H381.024V63.2045H382.54V64.7996H382.673C382.912 64.2812 383.275 63.8647 383.762 63.5501C384.25 63.2311 384.879 63.0716 385.65 63.0716C386.341 63.0716 386.946 63.2134 387.464 63.497C387.983 63.7761 388.386 64.2015 388.674 64.773C388.962 65.3402 389.106 66.058 389.106 66.9264V73.4131H387.538V67.0327C387.538 66.2308 387.329 65.606 386.913 65.1585C386.496 64.7066 385.925 64.4806 385.198 64.4806C384.697 64.4806 384.25 64.5892 383.856 64.8063C383.466 65.0234 383.158 65.3402 382.932 65.7567C382.706 66.1732 382.593 66.6783 382.593 67.272Z" fill="#6B7280"/>
<path d="M439.969 53.3396H414.527V49.5964H439.969V53.3396Z" fill="#3F72A3"/>
<path d="M439.969 53.3396H414.527V49.5964H439.969V53.3396Z" stroke="#E5E7EB"/>
<path d="M540.585 80.4773H473.969V22.4587H540.585V80.4773Z" stroke="#E5E7EB"/>
<rect x="496.048" y="22.4587" width="22.4588" height="22.4588" rx="11.2294" fill="url(#paint0_linear_2120_1230)"/>
<path d="M475.312 73.4038V59.7924H477.777V71.3368H483.772V73.4038H475.312ZM488.743 73.6098C488.097 73.6098 487.514 73.4946 486.996 73.2642C486.482 73.0294 486.074 72.6838 485.773 72.2274C485.476 71.7711 485.327 71.2083 485.327 70.5393C485.327 69.9633 485.434 69.487 485.646 69.1104C485.859 68.7337 486.149 68.4325 486.517 68.2065C486.885 67.9805 487.299 67.8099 487.76 67.6947C488.225 67.5751 488.706 67.4887 489.202 67.4355C489.8 67.3735 490.285 67.3181 490.658 67.2694C491.03 67.2162 491.3 67.1364 491.468 67.0301C491.641 66.9193 491.728 66.7488 491.728 66.5183V66.4785C491.728 65.9778 491.579 65.5901 491.282 65.3154C490.985 65.0407 490.558 64.9033 490 64.9033C489.41 64.9033 488.943 65.0318 488.597 65.2888C488.256 65.5458 488.026 65.8493 487.906 66.1993L485.66 65.8803C485.837 65.26 486.129 64.7416 486.537 64.3251C486.945 63.9042 487.443 63.5896 488.032 63.3813C488.622 63.1687 489.273 63.0623 489.986 63.0623C490.478 63.0623 490.968 63.1199 491.455 63.2351C491.943 63.3503 492.388 63.5409 492.791 63.8067C493.194 64.0681 493.518 64.4248 493.761 64.8767C494.009 65.3287 494.134 65.8936 494.134 66.5715V73.4038H491.821V72.0015H491.741C491.595 72.285 491.389 72.5509 491.123 72.799C490.861 73.0427 490.531 73.2399 490.133 73.3905C489.738 73.5367 489.275 73.6098 488.743 73.6098ZM489.368 71.842C489.851 71.842 490.27 71.7467 490.624 71.5562C490.979 71.3612 491.251 71.1042 491.442 70.7852C491.637 70.4662 491.734 70.1184 491.734 69.7418V68.5388C491.659 68.6008 491.53 68.6584 491.349 68.7116C491.172 68.7648 490.972 68.8113 490.751 68.8512C490.529 68.891 490.31 68.9265 490.093 68.9575C489.876 68.9885 489.687 69.0151 489.528 69.0373C489.169 69.086 488.848 69.1658 488.564 69.2765C488.28 69.3873 488.057 69.5424 487.893 69.7418C487.729 69.9367 487.647 70.1893 487.647 70.4994C487.647 70.9425 487.809 71.277 488.132 71.503C488.455 71.729 488.868 71.842 489.368 71.842ZM503.059 69.1104V63.1953H505.465V73.4038H503.133V71.5894H503.026C502.796 72.161 502.417 72.6284 501.89 72.9917C501.367 73.3551 500.722 73.5367 499.956 73.5367C499.287 73.5367 498.695 73.3883 498.181 73.0914C497.672 72.7901 497.273 72.3537 496.985 71.7821C496.697 71.2061 496.553 70.5105 496.553 69.6952V63.1953H498.959V69.323C498.959 69.9699 499.136 70.4839 499.49 70.865C499.845 71.246 500.31 71.4365 500.886 71.4365C501.241 71.4365 501.584 71.3501 501.916 71.1773C502.249 71.0045 502.521 70.7475 502.734 70.4064C502.951 70.0608 503.059 69.6288 503.059 69.1104ZM510.345 67.4222V73.4038H507.939V63.1953H510.239V64.9299H510.359C510.593 64.3583 510.968 63.9042 511.482 63.5674C512 63.2307 512.64 63.0623 513.403 63.0623C514.107 63.0623 514.721 63.213 515.244 63.5143C515.771 63.8156 516.178 64.252 516.466 64.8236C516.759 65.3951 516.903 66.0886 516.898 66.9038V73.4038H514.493V67.276C514.493 66.5937 514.315 66.0598 513.961 65.6743C513.611 65.2888 513.126 65.0961 512.505 65.0961C512.084 65.0961 511.71 65.1891 511.382 65.3752C511.059 65.5569 510.804 65.8205 510.618 66.1661C510.436 66.5117 510.345 66.9304 510.345 67.4222ZM523.797 73.6032C522.778 73.6032 521.903 73.3794 521.172 72.9319C520.445 72.4844 519.885 71.8663 519.49 71.0776C519.101 70.2845 518.906 69.3718 518.906 68.3394C518.906 67.3026 519.105 66.3876 519.504 65.5945C519.903 64.797 520.465 64.1767 521.192 63.7336C521.923 63.2861 522.787 63.0623 523.784 63.0623C524.612 63.0623 525.346 63.2152 525.984 63.5209C526.626 63.8222 527.138 64.2498 527.519 64.8036C527.9 65.3531 528.117 65.9955 528.17 66.731H525.871C525.778 66.2392 525.556 65.8294 525.206 65.5015C524.861 65.1692 524.398 65.003 523.817 65.003C523.325 65.003 522.893 65.1359 522.521 65.4018C522.149 65.6632 521.859 66.0398 521.65 66.5316C521.447 67.0235 521.345 67.6128 521.345 68.2995C521.345 68.9952 521.447 69.5933 521.65 70.094C521.854 70.5903 522.14 70.9735 522.508 71.2438C522.88 71.5096 523.316 71.6426 523.817 71.6426C524.172 71.6426 524.488 71.5761 524.768 71.4432C525.051 71.3058 525.288 71.1087 525.479 70.8517C525.669 70.5947 525.8 70.2823 525.871 69.9146H528.17C528.113 70.6368 527.9 71.277 527.532 71.8353C527.165 72.3892 526.664 72.8234 526.03 73.138C525.397 73.4481 524.652 73.6032 523.797 73.6032ZM532.552 67.4222V73.4038H530.146V59.7924H532.499V64.9299H532.618C532.858 64.3539 533.228 63.8997 533.728 63.5674C534.233 63.2307 534.876 63.0623 535.656 63.0623C536.365 63.0623 536.983 63.2108 537.51 63.5076C538.037 63.8045 538.445 64.2387 538.733 64.8103C539.025 65.3819 539.171 66.0797 539.171 66.9038V73.4038H536.766V67.276C536.766 66.5892 536.588 66.0553 536.234 65.6743C535.884 65.2888 535.392 65.0961 534.758 65.0961C534.333 65.0961 533.952 65.1891 533.615 65.3752C533.283 65.5569 533.022 65.8205 532.831 66.1661C532.645 66.5117 532.552 66.9304 532.552 67.4222Z" fill="url(#paint1_linear_2120_1230)"/>
<defs>
<linearGradient id="paint0_linear_2120_1230" x1="531.984" y1="33.6882" x2="509.807" y2="52.7092" gradientUnits="userSpaceOnUse">
<stop stop-color="#1B9DD9"/>
<stop offset="1" stop-color="#063482"/>
</linearGradient>
<linearGradient id="paint1_linear_2120_1230" x1="581.777" y1="66.9038" x2="558.548" y2="113.194" gradientUnits="userSpaceOnUse">
<stop stop-color="#1B9DD9"/>
<stop offset="1" stop-color="#063482"/>
</linearGradient>
</defs>
</svg>
