<svg width="249" height="146" viewBox="0 0 249 146" fill="none" xmlns="http://www.w3.org/2000/svg">
<g clip-path="url(#clip0_2120_1550)">
<path d="M248.267 136.184V140.383C248.267 141.123 248.061 141.849 247.676 142.482C241.681 152.357 236.551 162.849 230.03 172.355C229.797 172.694 229.52 173.002 229.162 173.204C226.278 174.831 220.003 174.658 215.492 174.536C213.762 174.489 212.361 173.102 213.857 172.231C214.424 171.902 215.217 171.42 215.593 170.884C221.224 162.865 226.766 153.642 230.999 144.825C233.81 138.976 233.927 138.691 230.999 132.7C226.679 123.869 221.436 114.484 215.315 106.842C215.078 106.547 214.663 106.257 214.339 106.062C212.901 105.199 213.993 103.686 215.669 103.603C221.531 103.31 228.602 102.694 231.698 107.419L248.264 136.172C248.266 136.176 248.267 136.18 248.267 136.184Z" fill="url(#paint0_linear_2120_1550)"/>
<path d="M191.053 103.701C193.67 102.496 196.196 102.49 198.813 103.701C203.328 103.72 207.875 103.656 212.39 103.701C214.631 104.698 216.172 105.923 217.636 107.911C221.548 113.203 230.319 128.632 233.013 134.714C235.099 139.417 234.153 140.673 232.035 144.929C229.898 149.223 218.342 170.164 215.797 172.328C214.682 173.273 213.381 173.493 212.39 174.491C192.848 174.705 173.267 174.465 153.725 174.491L154.029 172.574C159.801 161.951 165.63 151.335 171.518 140.725C171.732 137.214 170.579 133.742 168.046 130.31L154.133 106.564C153.79 105.644 153.654 104.685 153.725 103.701C166.161 103.714 178.624 103.669 191.06 103.701H191.053Z" fill="#063482"/>
<path d="M120.27 103.701C122.841 102.749 125.452 102.749 128.03 103.701C131.903 103.701 135.796 103.701 139.663 103.701L141.017 104.167C146.827 114.311 152.617 124.461 158.382 134.617C160.261 137.979 159.47 141.379 157.663 144.54L141.127 173.856L139.656 174.485C119.136 174.504 98.597 174.504 78.0835 174.485L77.4617 173.617L95.2482 142.364C96.4789 140.045 96.2198 137.422 94.9438 135.167L77.5264 104.679L78.0835 103.694C92.1392 103.681 106.214 103.681 120.263 103.694L120.27 103.701Z" fill="#E5E7EB"/>
<path d="M153.718 103.701C158.842 113.728 165.773 123.424 170.773 133.438C172.243 136.379 173.157 137.506 172.412 141.068C166.725 152.468 159.762 163.259 153.718 174.491C149.042 174.491 144.339 174.491 139.656 174.491L156.879 143.957C158.486 140.544 159.244 139.17 157.689 135.368L139.656 103.701C144.333 103.701 149.035 103.701 153.718 103.701Z" fill="white"/>
<path d="M36.8751 103.697C36.8751 103.699 36.877 103.7 36.8787 103.699C39.0474 102.838 41.2476 102.757 43.4273 103.445C43.9098 103.597 44.4089 103.7 44.9149 103.699C50.7569 103.685 56.6128 103.709 62.456 103.703C63.4663 103.702 64.4399 104.082 65.1812 104.769L65.6043 105.16C65.8904 105.425 66.1363 105.731 66.3339 106.067C72.0765 115.835 77.6186 125.648 82.9479 135.504C84.5543 138.536 83.5308 141.541 82.1188 144.385L65.9872 172.989C65.67 173.551 65.1764 173.994 64.5827 174.247C64.2166 174.404 63.8225 174.484 63.4244 174.484C44.1547 174.46 24.8788 174.504 5.60284 174.485C3.53293 174.418 1.92154 173.127 0.792535 171.511C0.401634 170.952 0.238261 170.272 0.235597 169.59L0 109.245C0.097159 106.208 2.09863 104.044 5.10409 103.681C14.0808 102.606 27.3705 103.72 36.8725 103.694C36.8739 103.694 36.8751 103.696 36.8751 103.697Z" fill="url(#paint1_linear_2120_1550)"/>
<path d="M78.0834 103.701L95.7987 134.714C97.2237 137.298 97.5022 140.142 96.1096 142.817L78.0834 174.491C73.4068 174.491 68.7043 174.497 64.0212 174.491L81.2443 143.957C83.7186 138.62 83.1292 137.946 80.5901 132.952C75.5832 123.1 68.8338 113.721 64.0212 103.701C68.6978 103.694 73.4003 103.701 78.0834 103.701Z" fill="white"/>
<path d="M245.359 3.81848C245.359 3.82028 245.36 3.8218 245.362 3.82201C246.374 3.94163 246.831 4.13697 247.38 4.55048C247.961 4.98783 248.267 5.69947 248.267 6.4268V7.60314C248.267 7.99053 248.212 8.37629 248.096 8.74586C247.109 11.8858 245.742 14.8932 243.999 17.7737C241.799 21.415 241.419 22.249 243.197 25.9062C243.285 26.0885 243.39 26.2643 243.506 26.431C245.561 29.4077 247.094 32.5167 248.102 35.7579C248.215 36.1199 248.267 36.4976 248.267 36.8767V37.34C248.267 38.7957 247.738 40.5915 246.363 41.0684C246.273 41.0996 246.178 41.125 246.078 41.1436C243.801 41.5748 239.706 41.3465 236.322 41.2176C234.834 41.1609 233.791 39.6378 234.05 38.1709C234.137 37.674 234.014 37.1745 233.744 36.7485C231.068 32.5318 228.913 28.1684 227.279 23.6584C227.024 22.9557 226.981 22.192 227.178 21.471C228.223 17.6502 230.059 14.0244 232.676 10.6033C234.339 8.27454 234.599 6.55535 233.463 5.44997C233.091 5.08771 232.512 4.70287 232.676 4.21026C232.884 3.58878 243.547 3.70491 245.356 3.81497C245.358 3.81509 245.359 3.81661 245.359 3.81848Z" fill="url(#paint2_linear_2120_1550)"/>
<path d="M245.359 3.82145C241.596 3.38747 237.094 4.13883 233.24 3.82145C233.344 4.64406 234.328 4.39144 234.833 5.38247C235.17 6.03667 235.222 6.61315 235.099 7.33212C234.419 11.2509 228.44 17.5856 227.857 21.9902C227.682 25.9154 233.59 33.2347 235.099 37.147C235.5 39.0383 234.678 40.1265 233.24 41.1564C221.775 41.2665 210.278 41.0787 198.813 41.1564C198.554 40.1848 198.308 39.2132 198.133 38.2287C197.958 37.2441 197.796 36.2661 197.77 35.2815C197.524 25.3389 197.369 15.3769 197.323 5.42781C197.323 4.3461 197.583 3.52997 198.807 3.82145H245.352H245.359Z" fill="#063482"/>
<path d="M198.81 3.82165C198.812 3.82165 198.813 3.8227 198.813 3.82449C198.802 3.92008 198.282 4.5951 198.295 5.4604C198.431 17.3332 198.703 29.4328 198.813 41.1566C199.006 61.1199 198.693 81.1128 198.797 101.079C198.805 102.522 197.634 103.696 196.191 103.697C195.34 103.698 194.489 103.7 193.638 103.701C192.209 103.704 191.053 102.545 191.053 101.117L191.041 3.56904C191.708 -2.1812 198.764 -0.1565 198.807 3.81838C198.807 3.82017 198.808 3.82165 198.81 3.82165Z" fill="#E5E7EB"/>
<path d="M45.9825 43.3197C46.3722 43.4827 46.7379 43.719 47.0143 44.0384C50.1026 47.6072 48.4275 54.2697 45.8978 57.8162C42.3648 62.7845 35.0796 65.5921 29.5424 62.9773C28.9278 62.687 28.4415 62.1781 28.144 61.5669C22.6186 50.215 33.874 38.2567 45.9825 43.3197Z" fill="url(#paint3_linear_2120_1550)"/>
<path d="M43.1531 68.2398C43.8505 68.4516 44.1426 69.2105 44.1426 69.9394V101.11C44.1426 102.541 42.9826 103.701 41.5517 103.699C40.857 103.699 40.1617 103.698 39.4665 103.698C38.0329 103.698 36.8687 102.537 36.8687 101.103V69.9394C36.8687 69.2105 37.1606 68.4513 37.858 68.2393C38.4159 68.0698 39.0811 68.0513 39.8537 68.1829C40.2827 68.256 40.7221 68.256 41.1511 68.183C41.9253 68.0511 42.5932 68.0698 43.1531 68.2398Z" fill="#E5E7EB"/>
<path d="M46.5717 43.579C57.8227 48.7932 56.3783 66.094 44.1492 68.7885C41.1437 69.4492 39.8677 69.4492 36.8752 68.7885C32.95 67.9206 30.6117 65.958 28.6296 62.4861L34.6988 62.9914C44.5249 62.2335 50.1342 52.6731 46.5652 43.5725L46.5717 43.579Z" fill="#E5E7EB"/>
<path d="M126.979 57.0843C127.706 57.2945 128.023 58.0768 128.023 58.8338V101.11C128.023 102.541 126.863 103.701 125.432 103.701C124.574 103.701 123.714 103.701 122.854 103.701C121.423 103.701 120.263 102.541 120.263 101.11V58.9277C120.263 58.1172 120.633 57.2949 121.418 57.0926C122.054 56.9286 122.798 56.9158 123.65 57.0551C124.066 57.1232 124.491 57.1167 124.907 57.0426C125.702 56.9007 126.393 56.9149 126.979 57.0843Z" fill="#E5E7EB"/>
<path d="M130.928 32.9141C130.93 32.9163 130.932 32.919 130.934 32.9218C135.451 41.6845 128.922 51.5204 119.421 52.7509C116.946 53.0727 113.974 53.1462 112.251 51.1465C112.088 50.9581 111.961 50.7361 111.859 50.5091C106.292 38.0996 118.863 26.2068 130.921 32.9089C130.924 32.9103 130.926 32.9121 130.928 32.9141Z" fill="url(#paint4_linear_2120_1550)"/>
<path d="M128.023 57.6413C124.946 58.3214 123.327 58.3214 120.263 57.6413C116.17 56.728 113.799 54.597 112.018 50.8532C120.872 54.5258 131.45 48.2817 131.456 38.4881C131.456 36.5643 130.336 34.6535 130.931 32.9111C141.263 38.6565 139.741 55.0375 128.023 57.6413Z" fill="#E5E7EB"/>
</g>
<defs>
<linearGradient id="paint0_linear_2120_1550" x1="269.798" y1="139.007" x2="217.984" y2="161.401" gradientUnits="userSpaceOnUse">
<stop stop-color="#1B9DD9"/>
<stop offset="1" stop-color="#063482"/>
</linearGradient>
<linearGradient id="paint1_linear_2120_1550" x1="134.031" y1="138.737" x2="62.592" y2="210.516" gradientUnits="userSpaceOnUse">
<stop stop-color="#1B9DD9"/>
<stop offset="1" stop-color="#063482"/>
</linearGradient>
<linearGradient id="paint2_linear_2120_1550" x1="261.09" y1="22.561" x2="231.479" y2="36.9694" gradientUnits="userSpaceOnUse">
<stop stop-color="#1B9DD9"/>
<stop offset="1" stop-color="#063482"/>
</linearGradient>
<linearGradient id="paint3_linear_2120_1550" x1="61.8806" y1="53.0494" x2="40.2848" y2="71.6889" gradientUnits="userSpaceOnUse">
<stop stop-color="#1B9DD9"/>
<stop offset="1" stop-color="#063482"/>
</linearGradient>
<linearGradient id="paint4_linear_2120_1550" x1="145.537" y1="41.9493" x2="123.871" y2="60.4874" gradientUnits="userSpaceOnUse">
<stop stop-color="#1B9DD9"/>
<stop offset="1" stop-color="#063482"/>
</linearGradient>
<clipPath id="clip0_2120_1550">
<rect width="248.267" height="174.614" fill="white"/>
</clipPath>
</defs>
</svg>
