<svg width="21" height="24" viewBox="0 0 21 24" fill="none" xmlns="http://www.w3.org/2000/svg">
<g clip-path="url(#clip0_2152_11147)">
<path d="M12.0568 7.62656C9.77404 7.71094 4.11153 8.35313 4.11153 13.1344C4.11153 18.2672 10.5943 18.4781 12.7131 15.1594C13.0178 15.6375 14.3725 16.9172 14.8365 17.3531L17.499 14.7281C17.499 14.7281 15.985 13.5422 15.985 12.2531V5.35781C15.985 4.17188 14.8365 1.5 10.7209 1.5C6.59591 1.5 4.40685 4.07813 4.40685 6.38906L7.85216 6.70781C8.61622 4.3875 10.3928 4.3875 10.3928 4.3875C12.3006 4.38281 12.0568 5.78437 12.0568 7.62656ZM12.0568 11.6953C12.0568 15.4453 8.10997 14.8828 8.10997 12.5016C8.10997 10.2891 10.4772 9.84375 12.0568 9.79219V11.6953ZM18.4318 19.3594C18.0709 19.8281 15.1506 22.5 10.2522 22.5C5.35372 22.5 1.60372 19.1484 0.455285 17.7656C0.136535 17.4047 0.50216 17.2359 0.713097 17.3766C4.14904 19.4625 9.51622 22.8984 18.174 18.7969C18.5256 18.6234 18.7975 18.8906 18.4318 19.3594ZM20.2975 19.4625C19.9928 20.2031 19.5475 20.7188 19.3037 20.9156C19.0459 21.1266 18.8584 21.0422 18.999 20.7375C19.1397 20.4328 19.9037 18.5578 19.5943 18.1594C19.2897 17.7703 17.86 17.9578 17.3443 18.0094C16.8381 18.0563 16.735 18.1031 16.6881 17.9953C16.5803 17.7281 17.7053 17.2687 18.4459 17.175C19.1818 17.0906 20.3678 17.1375 20.6022 17.4422C20.7756 17.6812 20.6022 18.7125 20.2975 19.4625Z" fill="#1B9DD9"/>
</g>
<defs>
<clipPath id="clip0_2152_11147">
<path d="M0 0H21V24H0V0Z" fill="white"/>
</clipPath>
</defs>
</svg>
