<svg width="64" height="64" viewBox="0 0 64 64" fill="none" xmlns="http://www.w3.org/2000/svg">
<rect width="64" height="64" rx="8" fill="white"/>
<path d="M32 12C22 12 14 20 14 30C14 34 15.5 37.5 18 40C18 40 20 48 32 52C44 48 46 40 46 40C48.5 37.5 50 34 50 30C50 20 42 12 32 12Z" fill="#1B9DD9"/>
<circle cx="26" cy="28" r="4" fill="white"/>
<circle cx="38" cy="28" r="4" fill="white"/>
<path d="M28 36C28 36 30 40 32 40C34 40 36 36 36 36" stroke="white" stroke-width="2" stroke-linecap="round"/>
<ellipse cx="24" cy="20" rx="3" ry="5" fill="#1B9DD9" transform="rotate(-20 24 20)"/>
<ellipse cx="40" cy="20" rx="3" ry="5" fill="#1B9DD9" transform="rotate(20 40 20)"/>
</svg>

