<svg width="64" height="64" viewBox="0 0 64 64" fill="none" xmlns="http://www.w3.org/2000/svg">
<path d="M48 0C56.8366 0 64 7.16344 64 16V48C64 56.8366 56.8366 64 48 64H16C7.16344 64 0 56.8366 0 48V16C0 7.16344 7.16344 0 16 0H48Z" fill="#102A43"/>
<g clip-path="url(#clip0_2120_1171)">
<path d="M32.9844 23.9688C33.5188 23.6406 33.875 23.0453 33.875 22.375C33.875 21.3391 33.0359 20.5 32 20.5C30.9641 20.5 30.125 21.3391 30.125 22.375C30.125 23.05 30.4812 23.6406 31.0156 23.9688L28.3297 29.3406C27.9031 30.1938 26.7969 30.4375 26.0516 29.8422L21.875 26.5C22.1094 26.1859 22.25 25.7969 22.25 25.375C22.25 24.3391 21.4109 23.5 20.375 23.5C19.3391 23.5 18.5 24.3391 18.5 25.375C18.5 26.4109 19.3391 27.25 20.375 27.25C20.3844 27.25 20.3984 27.25 20.4078 27.25L22.55 39.0344C22.8078 40.4594 24.05 41.5 25.5031 41.5H38.4969C39.9453 41.5 41.1875 40.4641 41.45 39.0344L43.5922 27.25C43.6016 27.25 43.6156 27.25 43.625 27.25C44.6609 27.25 45.5 26.4109 45.5 25.375C45.5 24.3391 44.6609 23.5 43.625 23.5C42.5891 23.5 41.75 24.3391 41.75 25.375C41.75 25.7969 41.8906 26.1859 42.125 26.5L37.9484 29.8422C37.2031 30.4375 36.0969 30.1938 35.6703 29.3406L32.9844 23.9688Z" fill="white"/>
</g>
<defs>
<clipPath id="clip0_2120_1171">
<path d="M18.5 19H45.5V43H18.5V19Z" fill="white"/>
</clipPath>
</defs>
</svg>
