<svg width="16" height="16" viewBox="0 0 16 16" fill="none" xmlns="http://www.w3.org/2000/svg">
<path d="M16 16H0V0H16V16Z" stroke="#E5E7EB"/>
<path d="M4.46562 4.46487C6.40937 2.52112 9.55 2.51175 11.5063 4.43362L10.2188 5.718C10.0031 5.93362 9.94062 6.2555 10.0562 6.53675C10.1719 6.818 10.4469 6.99925 10.75 6.99925H14.4844H14.75C15.1656 6.99925 15.5 6.66487 15.5 6.24925V2.24925C15.5 1.94612 15.3188 1.67112 15.0375 1.5555C14.7563 1.43987 14.4344 1.50237 14.2188 1.718L12.9187 3.018C10.1812 0.314872 5.77187 0.324247 3.05 3.04925C2.2875 3.81175 1.7375 4.70862 1.4 5.668C1.21562 6.18987 1.49063 6.75862 2.00938 6.943C2.52813 7.12737 3.1 6.85237 3.28437 6.33362C3.525 5.65237 3.91562 5.01175 4.46562 4.46487ZM0.5 9.74925V9.98675V10.0086V13.7492C0.5 14.0524 0.68125 14.3274 0.9625 14.443C1.24375 14.5586 1.56562 14.4961 1.78125 14.2805L3.08125 12.9805C5.81875 15.6836 10.2281 15.6742 12.95 12.9492C13.7125 12.1867 14.2656 11.2899 14.6031 10.3336C14.7875 9.81175 14.5125 9.243 13.9937 9.05862C13.475 8.87425 12.9031 9.14925 12.7188 9.668C12.4781 10.3492 12.0875 10.9899 11.5375 11.5367C9.59375 13.4805 6.45312 13.4899 4.49687 11.568L5.78125 10.2805C5.99687 10.0649 6.05937 9.743 5.94375 9.46175C5.82812 9.1805 5.55312 8.99925 5.25 8.99925H1.5125H1.49063H1.25C0.834375 8.99925 0.5 9.33362 0.5 9.74925Z" fill="#1B9DD9"/>
</svg>
