<svg width="20" height="20" viewBox="0 0 20 20" fill="none" xmlns="http://www.w3.org/2000/svg">
<g clip-path="url(#clip0_2152_10332)">
<path d="M11.25 1.25C11.25 0.558594 10.6914 0 10 0C9.30862 0 8.75003 0.558594 8.75003 1.25V9.375C8.75003 9.71875 8.46878 10 8.12503 10C7.78128 10 7.50003 9.71875 7.50003 9.375V2.5C7.50003 1.80859 6.94143 1.25 6.25003 1.25C5.55862 1.25 5.00003 1.80859 5.00003 2.5V13.125C5.00003 13.1836 5.00003 13.2461 5.00393 13.3047L2.64065 11.0547C2.01565 10.4609 1.02737 10.4844 0.429715 11.1094C-0.167941 11.7344 -0.140597 12.7227 0.484403 13.3203L4.87503 17.5C6.55862 19.1055 8.7969 20 11.125 20H11.875C15.6719 20 18.75 16.9219 18.75 13.125V5C18.75 4.30859 18.1914 3.75 17.5 3.75C16.8086 3.75 16.25 4.30859 16.25 5V9.375C16.25 9.71875 15.9688 10 15.625 10C15.2813 10 15 9.71875 15 9.375V2.5C15 1.80859 14.4414 1.25 13.75 1.25C13.0586 1.25 12.5 1.80859 12.5 2.5V9.375C12.5 9.71875 12.2188 10 11.875 10C11.5313 10 11.25 9.71875 11.25 9.375V1.25Z" fill="#1B9DD9"/>
</g>
<defs>
<clipPath id="clip0_2152_10332">
<path d="M0 0H20V20H0V0Z" fill="white"/>
</clipPath>
</defs>
</svg>
