<svg width="20" height="20" viewBox="0 0 20 20" fill="none" xmlns="http://www.w3.org/2000/svg">
<g clip-path="url(#clip0_2152_10508)">
<path d="M0 7.5C0 6.12109 1.12109 5 2.5 5C2.51953 5 2.54297 5 2.5625 5C2.85156 3.57422 4.11328 2.5 5.625 2.5C6.21094 2.5 6.75781 2.66016 7.22266 2.9375C7.74219 1.9375 8.79297 1.25 10 1.25C11.207 1.25 12.2578 1.9375 12.7773 2.9375C13.2422 2.66016 13.7891 2.5 14.375 2.5C15.8867 2.5 17.1484 3.57422 17.4375 5C17.457 5 17.4805 5 17.5 5C18.8789 5 20 6.12109 20 7.5C20 7.95703 19.8789 8.38281 19.6641 8.75H0.335938C0.121094 8.38281 0 7.95703 0 7.5ZM0 11.0703C0 10.4805 0.480469 10 1.07031 10H18.9297C19.5195 10 20 10.4805 20 11.0703C20 13.8242 18.2656 16.1758 15.832 17.0898L15.7617 17.6562C15.6836 18.2812 15.1523 18.75 14.5195 18.75H5.47656C4.84766 18.75 4.3125 18.2812 4.23438 17.6562L4.16406 17.0938C1.73437 16.1758 0 13.8242 0 11.0703Z" fill="#1B9DD9"/>
</g>
<defs>
<clipPath id="clip0_2152_10508">
<path d="M0 0H20V20H0V0Z" fill="white"/>
</clipPath>
</defs>
</svg>
