<svg width="15" height="24" viewBox="0 0 15 24" fill="none" xmlns="http://www.w3.org/2000/svg">
<path d="M15 24H0V0H15V24Z" stroke="#E5E7EB"/>
<path d="M7.49909 0C8.32878 0 8.99909 0.670312 8.99909 1.5V3.17344C9.07409 3.18281 9.1444 3.19219 9.2194 3.20625C9.23815 3.21094 9.25222 3.21094 9.27097 3.21562L11.521 3.62813C12.3366 3.77813 12.8757 4.56094 12.7257 5.37187C12.5757 6.18281 11.7928 6.72656 10.9819 6.57656L8.75534 6.16875C7.28815 5.95313 5.9944 6.09844 5.08503 6.45938C4.17565 6.82031 3.81003 7.31719 3.72565 7.77656C3.6319 8.27812 3.70222 8.55937 3.7819 8.73281C3.86628 8.91563 4.03972 9.12187 4.3819 9.35156C5.14597 9.85312 6.31784 10.1813 7.83659 10.5844L7.97253 10.6219C9.31315 10.9781 10.9538 11.4094 12.1725 12.2062C12.8382 12.6422 13.4663 13.2328 13.8553 14.0578C14.2538 14.8969 14.3382 15.8344 14.1553 16.8328C13.8319 18.6141 12.6038 19.8047 11.0803 20.4281C10.4382 20.6906 9.73972 20.8594 8.99909 20.9437V22.5C8.99909 23.3297 8.32878 24 7.49909 24C6.6694 24 5.99909 23.3297 5.99909 22.5V20.8641C5.98034 20.8594 5.9569 20.8594 5.93815 20.8547H5.92878C4.78503 20.6766 2.90534 20.1844 1.63972 19.6219C0.885029 19.2844 0.542841 18.3984 0.880341 17.6437C1.21784 16.8891 2.10378 16.5469 2.85847 16.8844C3.83815 17.3203 5.45065 17.7516 6.38347 17.8969C7.87878 18.1172 9.11159 17.9906 9.94597 17.6484C10.7382 17.325 11.0991 16.8563 11.2022 16.2938C11.2913 15.7969 11.221 15.5109 11.1413 15.3375C11.0522 15.15 10.8788 14.9437 10.5319 14.7141C9.76315 14.2125 8.58659 13.8844 7.06315 13.4813L6.9319 13.4484C5.59597 13.0922 3.95534 12.6562 2.73659 11.8594C2.07097 11.4234 1.44753 10.8281 1.05847 10.0031C0.664716 9.16406 0.585029 8.22656 0.772529 7.22812C1.11003 5.4375 2.45065 4.275 3.97409 3.67031C4.59753 3.42188 5.2819 3.25313 5.99909 3.15469V1.5C5.99909 0.670312 6.6694 0 7.49909 0Z" fill="#1B9DD9"/>
</svg>
