<svg width="21" height="24" viewBox="0 0 21 24" fill="none" xmlns="http://www.w3.org/2000/svg">
<g clip-path="url(#clip0_2152_11007)">
<path d="M16.3781 2.09105C16.6547 1.44886 16.4484 0.698862 15.8812 0.286362C15.3141 -0.126138 14.5406 -0.0886384 14.0109 0.370737L2.01093 10.8707C1.54218 11.2832 1.37343 11.9442 1.59374 12.5254C1.81405 13.1067 2.37655 13.5004 2.99999 13.5004H8.22655L4.62186 21.9098C4.3453 22.552 4.55155 23.302 5.11874 23.7145C5.68593 24.127 6.45937 24.0895 6.98905 23.6301L18.9891 13.1301C19.4578 12.7176 19.6266 12.0567 19.4062 11.4754C19.1859 10.8942 18.6281 10.5051 18 10.5051H12.7734L16.3781 2.09105Z" fill="#1B9DD9"/>
</g>
<defs>
<clipPath id="clip0_2152_11007">
<path d="M0 0H21V24H0V0Z" fill="white"/>
</clipPath>
</defs>
</svg>
