<svg width="25" height="20" viewBox="0 0 25 20" fill="none" xmlns="http://www.w3.org/2000/svg">
<g clip-path="url(#clip0_2058_3599)">
<path d="M1.875 1.875H5.3125C5.83203 1.875 6.25 1.45703 6.25 0.9375C6.25 0.417969 5.83203 0 5.3125 0H1.25C0.558594 0 0 0.558594 0 1.25V5.3125C0 5.83203 0.417969 6.25 0.9375 6.25C1.45703 6.25 1.875 5.83203 1.875 5.3125V1.875ZM6.86719 8.75C7.11342 8.75 7.35723 8.7015 7.58472 8.60727C7.8122 8.51305 8.0189 8.37494 8.19301 8.20083C8.36712 8.02672 8.50523 7.82002 8.59946 7.59253C8.69369 7.36505 8.74219 7.12123 8.74219 6.875C8.74219 6.62877 8.69369 6.38495 8.59946 6.15747C8.50523 5.92998 8.36712 5.72328 8.19301 5.54917C8.0189 5.37506 7.8122 5.23695 7.58472 5.14273C7.35723 5.0485 7.11342 5 6.86719 5C6.62096 5 6.37714 5.0485 6.14966 5.14273C5.92217 5.23695 5.71547 5.37506 5.54136 5.54917C5.36725 5.72328 5.22914 5.92998 5.13491 6.15747C5.04069 6.38495 4.99219 6.62877 4.99219 6.875C4.99219 7.12123 5.04069 7.36505 5.13491 7.59253C5.22914 7.82002 5.36725 8.02672 5.54136 8.20083C5.71547 8.37494 5.92217 8.51305 6.14966 8.60727C6.37714 8.7015 6.62096 8.75 6.86719 8.75ZM5.83203 10C4.68359 10 3.75 10.9336 3.75 12.082C3.75 12.6562 4.21484 13.125 4.79297 13.125H6.98438C7.29688 11.793 8.26562 10.7148 9.53125 10.25C9.23828 10.0898 8.89844 10 8.54297 10H5.83203ZM20.207 13.125C20.7812 13.125 21.25 12.6602 21.25 12.082C21.25 10.9297 20.3164 10 19.168 10H16.457C16.0977 10 15.7617 10.0898 15.4688 10.25C16.7344 10.7148 17.7031 11.793 18.0156 13.125H20.207ZM16.7148 13.125C16.3789 12.1758 15.5469 11.4609 14.5312 11.2891C14.3789 11.2617 14.2227 11.25 14.0625 11.25H10.9375C10.7773 11.25 10.6211 11.2617 10.4688 11.2891C9.45312 11.4609 8.62109 12.1758 8.28516 13.125C8.17969 13.418 8.125 13.7344 8.125 14.0625C8.125 14.582 8.54297 15 9.0625 15H15.9375C16.457 15 16.875 14.582 16.875 14.0625C16.875 13.7344 16.8203 13.418 16.7148 13.125ZM18.125 8.75C18.3712 8.75 18.615 8.7015 18.8425 8.60727C19.07 8.51305 19.2767 8.37494 19.4508 8.20083C19.6249 8.02672 19.763 7.82002 19.8573 7.59253C19.9515 7.36505 20 7.12123 20 6.875C20 6.62877 19.9515 6.38495 19.8573 6.15747C19.763 5.92998 19.6249 5.72328 19.4508 5.54917C19.2767 5.37506 19.07 5.23695 18.8425 5.14273C18.615 5.0485 18.3712 5 18.125 5C17.8788 5 17.635 5.0485 17.4075 5.14273C17.18 5.23695 16.9733 5.37506 16.7992 5.54917C16.6251 5.72328 16.487 5.92998 16.3927 6.15747C16.2985 6.38495 16.25 6.62877 16.25 6.875C16.25 7.12123 16.2985 7.36505 16.3927 7.59253C16.487 7.82002 16.6251 8.02672 16.7992 8.20083C16.9733 8.37494 17.18 8.51305 17.4075 8.60727C17.635 8.7015 17.8788 8.75 18.125 8.75ZM15 7.5C15 6.83696 14.7366 6.20107 14.2678 5.73223C13.7989 5.26339 13.163 5 12.5 5C11.837 5 11.2011 5.26339 10.7322 5.73223C10.2634 6.20107 10 6.83696 10 7.5C10 8.16304 10.2634 8.79893 10.7322 9.26777C11.2011 9.73661 11.837 10 12.5 10C13.163 10 13.7989 9.73661 14.2678 9.26777C14.7366 8.79893 15 8.16304 15 7.5ZM19.6875 1.875H23.125V5.3125C23.125 5.83203 23.543 6.25 24.0625 6.25C24.582 6.25 25 5.83203 25 5.3125V1.25C25 0.558594 24.4414 0 23.75 0H19.6875C19.168 0 18.75 0.417969 18.75 0.9375C18.75 1.45703 19.168 1.875 19.6875 1.875ZM1.875 18.125V14.6875C1.875 14.168 1.45703 13.75 0.9375 13.75C0.417969 13.75 0 14.168 0 14.6875V18.75C0 19.4414 0.558594 20 1.25 20H5.3125C5.83203 20 6.25 19.582 6.25 19.0625C6.25 18.543 5.83203 18.125 5.3125 18.125H1.875ZM19.6875 18.125C19.168 18.125 18.75 18.543 18.75 19.0625C18.75 19.582 19.168 20 19.6875 20H23.75C24.4414 20 25 19.4414 25 18.75V14.6875C25 14.168 24.582 13.75 24.0625 13.75C23.543 13.75 23.125 14.168 23.125 14.6875V18.125H19.6875Z" fill="#669FFF"/>
</g>
<defs>
<clipPath id="clip0_2058_3599">
<path d="M0 0H25V20H0V0Z" fill="white"/>
</clipPath>
</defs>
</svg>
