<svg width="20" height="20" viewBox="0 0 20 20" fill="none" xmlns="http://www.w3.org/2000/svg">
<path d="M20 20H0V0H20V20Z" stroke="#E5E7EB"/>
<path d="M10.0593 1.07799C10.028 0.86705 9.86786 0.695175 9.65692 0.663925C8.79364 0.542831 7.91473 0.699081 7.1413 1.10924L4.25067 2.65221C3.48114 3.06236 2.86005 3.70689 2.47723 4.49205L1.04364 7.44517C0.660828 8.23033 0.535828 9.12096 0.688172 9.98033L1.25458 13.2147C1.40692 14.078 1.82489 14.8671 2.4538 15.4764L4.80927 17.7577C5.43817 18.3671 6.23895 18.7577 7.10223 18.8788L10.3444 19.3358C11.2077 19.4569 12.0866 19.3006 12.86 18.8905L15.7507 17.3475C16.5202 16.9374 17.1413 16.2928 17.5241 15.5038L18.9577 12.5546C19.3405 11.7694 19.4655 10.8788 19.3132 10.0194C19.278 9.81236 19.1061 9.65611 18.8991 9.62486C16.8874 9.30455 15.2741 7.78502 14.8171 5.82017C14.7468 5.5233 14.5046 5.29674 14.2038 5.24986C12.071 4.91002 10.3874 3.21861 10.0554 1.07799H10.0593ZM8.12567 5.62486C8.45719 5.62486 8.77513 5.75656 9.00955 5.99098C9.24398 6.2254 9.37567 6.54334 9.37567 6.87486C9.37567 7.20638 9.24398 7.52432 9.00955 7.75875C8.77513 7.99317 8.45719 8.12486 8.12567 8.12486C7.79415 8.12486 7.47621 7.99317 7.24179 7.75875C7.00737 7.52432 6.87567 7.20638 6.87567 6.87486C6.87567 6.54334 7.00737 6.2254 7.24179 5.99098C7.47621 5.75656 7.79415 5.62486 8.12567 5.62486ZM5.62567 13.1249C5.62567 12.7933 5.75737 12.4754 5.99179 12.241C6.22621 12.0066 6.54415 11.8749 6.87567 11.8749C7.20719 11.8749 7.52513 12.0066 7.75955 12.241C7.99398 12.4754 8.12567 12.7933 8.12567 13.1249C8.12567 13.4564 7.99398 13.7743 7.75955 14.0087C7.52513 14.2432 7.20719 14.3749 6.87567 14.3749C6.54415 14.3749 6.22621 14.2432 5.99179 14.0087C5.75737 13.7743 5.62567 13.4564 5.62567 13.1249ZM14.3757 10.6249C14.7072 10.6249 15.0251 10.7566 15.2596 10.991C15.494 11.2254 15.6257 11.5433 15.6257 11.8749C15.6257 12.2064 15.494 12.5243 15.2596 12.7587C15.0251 12.9932 14.7072 13.1249 14.3757 13.1249C14.0442 13.1249 13.7262 12.9932 13.4918 12.7587C13.2574 12.5243 13.1257 12.2064 13.1257 11.8749C13.1257 11.5433 13.2574 11.2254 13.4918 10.991C13.7262 10.7566 14.0442 10.6249 14.3757 10.6249Z" fill="#1B9DD9"/>
</svg>
