<svg width="24" height="24" viewBox="0 0 24 24" fill="none" xmlns="http://www.w3.org/2000/svg">
<rect width="24" height="24" rx="6" fill="#102A43" fill-opacity="0.1"/>
<path d="M12 6L13.5 10.5L12 15L10.5 10.5L12 6Z" fill="#FFC220"/>
<path d="M12 6L13.5 10.5L12 15L10.5 10.5L12 6Z" fill="#FFC220"/>
<path d="M6.8 9L11.3 10.5L12 15L7.5 13.5L6.8 9Z" fill="#FFC220"/>
<path d="M17.2 9L12.7 10.5L12 15L16.5 13.5L17.2 9Z" fill="#FFC220"/>
<path d="M6.8 15L11.3 13.5L12 9L7.5 10.5L6.8 15Z" fill="#FFC220"/>
<path d="M17.2 15L12.7 13.5L12 9L16.5 10.5L17.2 15Z" fill="#FFC220"/>
</svg>

