<svg width="32" height="32" viewBox="0 0 32 32" fill="none" xmlns="http://www.w3.org/2000/svg">
<rect width="32" height="32" rx="4" fill="#102A43" fill-opacity="0.1"/>
<path d="M16 8C13.7909 8 12 9.79086 12 12C12 14.2091 13.7909 16 16 16C18.2091 16 20 14.2091 20 12C20 9.79086 18.2091 8 16 8ZM16 10C17.1046 10 18 10.8954 18 12C18 13.1046 17.1046 14 16 14C14.8954 14 14 13.1046 14 12C14 10.8954 14.8954 10 16 10ZM8 22V24H24V22C24 19.3333 18.6667 18 16 18C13.3333 18 8 19.3333 8 22ZM10 22C10 21.3333 12.6667 20 16 20C19.3333 20 22 21.3333 22 22H10Z" fill="#1B9DD9"/>
</svg>

