<svg width="24" height="24" viewBox="0 0 24 24" fill="none" xmlns="http://www.w3.org/2000/svg">
<rect width="24" height="24" rx="6" fill="#102A43" fill-opacity="0.1"/>
<path d="M16.5 8.5C15.7 8.5 15 8.1 14.5 7.5C14.1 7 13.9 6.3 13.9 5.5H11.9V14.3C11.9 15.3 11.1 16.1 10.1 16.1C9.1 16.1 8.3 15.3 8.3 14.3C8.3 13.3 9.1 12.5 10.1 12.5C10.3 12.5 10.5 12.5 10.7 12.6V10.5C10.5 10.5 10.3 10.5 10.1 10.5C8 10.5 6.3 12.2 6.3 14.3C6.3 16.4 8 18.1 10.1 18.1C12.2 18.1 13.9 16.4 13.9 14.3V9.8C14.6 10.3 15.5 10.5 16.5 10.5V8.5Z" fill="#102A43"/>
<path d="M16.5 8.5C15.7 8.5 15 8.1 14.5 7.5C14.1 7 13.9 6.3 13.9 5.5H12.9V14.3C12.9 15.3 12.1 16.1 11.1 16.1C10.9 16.1 10.7 16.1 10.5 16V14.3C10.7 14.4 10.9 14.4 11.1 14.4C11.5 14.4 11.9 14 11.9 13.5V5.5H13.9C13.9 6.3 14.1 7 14.5 7.5C15 8.1 15.7 8.5 16.5 8.5Z" fill="#25F4EE"/>
<path d="M10.1 12.5C9.1 12.5 8.3 13.3 8.3 14.3C8.3 14.9 8.6 15.5 9.1 15.8C8.9 15.5 8.8 15.2 8.8 14.8C8.8 13.8 9.6 13 10.6 13C10.8 13 11 13 11.2 13.1V10.5C11 10.5 10.8 10.5 10.6 10.5C10.4 10.5 10.3 10.5 10.1 10.5V12.5Z" fill="#FE2C55"/>
</svg>

