<svg width="24" height="24" viewBox="0 0 24 24" fill="none" xmlns="http://www.w3.org/2000/svg">
<rect width="24" height="24" rx="6" fill="#102A43" fill-opacity="0.1"/>
<path d="M14.1 14.4C12.8 15.4 10.9 15.9 9.3 15.9C7.1 15.9 5.1 15.1 3.6 13.8C3.5 13.7 3.6 13.6 3.7 13.7C5.3 15 7.3 15.6 9.4 15.6C10.8 15.6 12.4 15.3 13.8 14.6C14 14.5 14.2 14.3 14.1 14.4Z" fill="#FF9900"/>
<path d="M14.6 13.8C14.5 13.7 13.9 13.8 13.6 13.8C13.5 13.8 13.5 13.9 13.6 14C14 14.3 14.9 14.2 15 14.1C15.1 14 15 13.5 14.6 13.1C14.5 13 14.4 13 14.5 13.1C14.7 13.4 14.7 13.7 14.6 13.8Z" fill="#FF9900"/>
<path d="M11.5 10.5C11.5 11 11.6 11.5 11.3 11.9C11.1 12.2 10.8 12.4 10.4 12.4C9.9 12.4 9.6 12.1 9.6 11.6C9.6 10.6 10.5 10.4 11.5 10.4V10.5ZM12.8 13.5C12.7 13.6 12.6 13.6 12.5 13.5C12.1 13.2 12 13 11.8 12.7C11.2 13.3 10.8 13.5 10 13.5C9.1 13.5 8.4 12.9 8.4 11.8C8.4 10.5 9.2 9.9 10.4 9.9C10.8 9.9 11.3 9.9 11.5 10V9.7C11.5 9.1 11.5 8.6 11 8.3C10.6 8 10 8.1 9.7 8.5C9.6 8.6 9.5 8.7 9.4 8.7C9.2 8.6 8.8 8.5 8.6 8.4C8.5 8.4 8.5 8.3 8.5 8.2C8.9 7.4 9.8 7.1 10.8 7.1C11.3 7.1 12 7.2 12.4 7.6C12.9 8 12.8 8.7 12.8 9.4V11.7C12.8 12.2 13 12.5 13.2 12.8C13.3 12.9 13.3 13.1 13.2 13.2C12.9 13.4 12.8 13.5 12.8 13.5Z" fill="#102A43"/>
</svg>

