<svg width="20" height="20" viewBox="0 0 20 20" fill="none" xmlns="http://www.w3.org/2000/svg">
<g clip-path="url(#clip0_2152_10528)">
<path d="M10.5235 0.113281C10.3594 0.0390625 10.1836 0 10 0C9.81642 0 9.64064 0.0390625 9.47658 0.113281L2.12111 3.23438C1.26174 3.59766 0.621112 4.44531 0.625018 5.46875C0.644549 9.34375 2.2383 16.4336 8.96877 19.6562C9.62111 19.9688 10.3789 19.9688 11.0313 19.6562C17.7617 16.4336 19.3555 9.34375 19.375 5.46875C19.3789 4.44531 18.7383 3.59766 17.8789 3.23438L10.5235 0.113281ZM5.62502 8.64453C5.62502 7.32422 6.69533 6.25 8.01955 6.25C8.65236 6.25 9.26174 6.50391 9.71096 6.94922L10 7.23828L10.2891 6.94922C10.7383 6.5 11.3477 6.25 11.9805 6.25C13.3008 6.25 14.375 7.32031 14.375 8.64453C14.375 9.27734 14.1211 9.88672 13.6758 10.3359L10.4453 13.5664C10.2031 13.8086 9.80471 13.8086 9.56252 13.5664L6.33205 10.3359C5.88283 9.88672 5.63283 9.27734 5.63283 8.64453H5.62502Z" fill="#1B9DD9"/>
</g>
<defs>
<clipPath id="clip0_2152_10528">
<path d="M0 0H20V20H0V0Z" fill="white"/>
</clipPath>
</defs>
</svg>
