<svg width="23" height="20" viewBox="0 0 23 20" fill="none" xmlns="http://www.w3.org/2000/svg">
<g clip-path="url(#clip0_2152_10498)">
<path d="M6.00391 5.65625C6.27344 6.29297 6.80859 6.875 7.5 6.875H15C15.6914 6.875 16.2266 6.29297 16.4961 5.65625C16.9688 4.53516 18.082 3.75 19.375 3.75C21.1016 3.75 22.5 5.14844 22.5 6.875C22.5 8.0625 21.8359 9.09766 20.8594 9.625C20.7188 9.69922 20.625 9.83984 20.625 10C20.625 10.1602 20.7188 10.3008 20.8594 10.375C21.8359 10.9023 22.5 11.9375 22.5 13.125C22.5 14.8516 21.1016 16.25 19.375 16.25C18.082 16.25 16.9688 15.4648 16.4961 14.3438C16.2266 13.707 15.6914 13.125 15 13.125H7.5C6.80859 13.125 6.27344 13.707 6.00391 14.3438C5.53125 15.4648 4.41797 16.25 3.125 16.25C1.39844 16.25 0 14.8516 0 13.125C0 11.9375 0.664062 10.9023 1.64062 10.375C1.78125 10.3008 1.875 10.1602 1.875 10C1.875 9.83984 1.78125 9.69922 1.64062 9.625C0.664062 9.09766 0 8.0625 0 6.875C0 5.14844 1.39844 3.75 3.125 3.75C4.41797 3.75 5.53125 4.53516 6.00391 5.65625Z" fill="#1B9DD9"/>
</g>
<defs>
<clipPath id="clip0_2152_10498">
<path d="M0 0H22.5V20H0V0Z" fill="white"/>
</clipPath>
</defs>
</svg>
