<svg width="30" height="30" viewBox="0 0 30 30" fill="none" xmlns="http://www.w3.org/2000/svg">
<g clip-path="url(#clip0_2152_10637)">
<path d="M9.17584 22.5528L7.36529 20.7422C6.86724 20.2442 6.69146 19.5235 6.91412 18.8555C7.0899 18.334 7.32428 17.6543 7.60553 16.875H1.40631C0.902401 16.875 0.433651 16.6055 0.181697 16.166C-0.0702557 15.7266 -0.0643963 15.1875 0.193416 14.7539L3.26959 9.56839C4.03131 8.28519 5.40826 7.50003 6.89654 7.50003H11.7188C11.8594 7.26566 12.0001 7.04886 12.1407 6.83792C16.9395 -0.240201 24.0879 -0.474576 28.3536 0.31058C29.0333 0.433627 29.5606 0.966831 29.6895 1.64652C30.4747 5.918 30.2344 13.0606 23.1622 17.8594C22.9571 18 22.7344 18.1407 22.5001 18.2813V23.1035C22.5001 24.5918 21.7149 25.9746 20.4317 26.7305L15.2462 29.8067C14.8126 30.0645 14.2735 30.0703 13.834 29.8184C13.3946 29.5664 13.1251 29.1035 13.1251 28.5938V22.3125C12.2989 22.5996 11.5782 22.834 11.0333 23.0098C10.377 23.2207 9.66217 23.0391 9.16998 22.5528H9.17584ZM22.5001 9.84378C23.1217 9.84378 23.7178 9.59685 24.1573 9.15732C24.5969 8.71778 24.8438 8.12163 24.8438 7.50003C24.8438 6.87843 24.5969 6.28229 24.1573 5.84275C23.7178 5.40321 23.1217 5.15628 22.5001 5.15628C21.8785 5.15628 21.2823 5.40321 20.8428 5.84275C20.4032 6.28229 20.1563 6.87843 20.1563 7.50003C20.1563 8.12163 20.4032 8.71778 20.8428 9.15732C21.2823 9.59685 21.8785 9.84378 22.5001 9.84378Z" fill="white"/>
</g>
<defs>
<clipPath id="clip0_2152_10637">
<path d="M0 0H30V30H0V0Z" fill="white"/>
</clipPath>
</defs>
</svg>
