<svg width="38" height="30" viewBox="0 0 38 30" fill="none" xmlns="http://www.w3.org/2000/svg">
<g clip-path="url(#clip0_2152_10675)">
<path d="M18.0761 7.92773C18.4921 7.55859 18.6562 6.97852 18.4394 6.46289C18.3046 6.15234 18.1581 5.84766 17.9941 5.55469L17.8124 5.23828C17.6367 4.94531 17.4433 4.6582 17.2382 4.38281C16.9042 3.9375 16.3183 3.79102 15.791 3.9668L14.1386 4.51172C13.5117 3.99609 12.791 3.57422 12.0175 3.28711L11.6601 1.58789C11.5488 1.04297 11.1269 0.609375 10.5761 0.544922C10.1894 0.492188 9.79682 0.46875 9.39838 0.46875H9.35736C8.95893 0.46875 8.56635 0.492187 8.17963 0.539062C7.62885 0.603516 7.20697 1.04297 7.09564 1.58203L6.73822 3.28711C5.95893 3.58008 5.24408 3.99609 4.61713 4.51172L2.95893 3.97266C2.43158 3.79688 1.84564 3.94336 1.51166 4.38867C1.30658 4.66406 1.11322 4.95117 0.931581 5.24414L0.7558 5.55469C0.591737 5.84766 0.445253 6.15234 0.310487 6.46875C0.0936905 6.97852 0.257753 7.55859 0.673769 7.93359L1.97455 9.09375C1.9101 9.48633 1.87494 9.89648 1.87494 10.3125C1.87494 10.7285 1.9101 11.1387 1.97455 11.5371L0.673769 12.6973C0.257753 13.0664 0.0936905 13.6465 0.310487 14.1621C0.445253 14.4727 0.591737 14.7773 0.7558 15.0762L0.931581 15.3809C1.10736 15.6797 1.30072 15.9609 1.51166 16.2363C1.84564 16.6816 2.43158 16.8281 2.95893 16.6523L4.61127 16.1074C5.23822 16.623 5.95893 17.0449 6.73236 17.332L7.08978 19.0371C7.20111 19.582 7.62299 20.0156 8.17377 20.0801C8.56635 20.127 8.96478 20.1504 9.36908 20.1504C9.77338 20.1504 10.1718 20.127 10.5644 20.0801C11.1152 20.0156 11.5371 19.5762 11.6484 19.0371L12.0058 17.332C12.7851 17.0391 13.4999 16.623 14.1269 16.1074L15.7792 16.6523C16.3066 16.8281 16.8925 16.6816 17.2265 16.2363C17.4316 15.9609 17.6249 15.6797 17.8007 15.3809L17.9824 15.0645C18.1464 14.7715 18.2929 14.4668 18.4277 14.1562C18.6445 13.6465 18.4804 13.0664 18.0644 12.6914L16.7636 11.5312C16.8281 11.1328 16.8632 10.7227 16.8632 10.3066C16.8632 9.89062 16.8281 9.48047 16.7636 9.08203L18.0644 7.92188L18.0761 7.92773ZM6.56244 10.3125C6.56244 9.56658 6.85876 8.85121 7.3862 8.32376C7.91365 7.79632 8.62902 7.5 9.37494 7.5C10.1209 7.5 10.8362 7.79632 11.3637 8.32376C11.8911 8.85121 12.1874 9.56658 12.1874 10.3125C12.1874 11.0584 11.8911 11.7738 11.3637 12.3012C10.8362 12.8287 10.1209 13.125 9.37494 13.125C8.62902 13.125 7.91365 12.8287 7.3862 12.3012C6.85876 11.7738 6.56244 11.0584 6.56244 10.3125ZM29.5722 29.3262C29.9413 29.7422 30.5214 29.9062 31.0371 29.6895C31.3476 29.5547 31.6523 29.4082 31.9453 29.2441L32.2617 29.0625C32.5546 28.8867 32.8417 28.6934 33.1171 28.4883C33.5624 28.1543 33.7089 27.5684 33.5331 27.041L32.9882 25.3887C33.5038 24.7617 33.9257 24.041 34.2128 23.2676L35.9179 22.9102C36.4628 22.7988 36.8964 22.377 36.9609 21.8262C37.0078 21.4336 37.0312 21.0352 37.0312 20.6309C37.0312 20.2266 37.0078 19.8281 36.9609 19.4355C36.8964 18.8848 36.457 18.4629 35.9179 18.3516L34.2128 17.9883C33.9199 17.209 33.5038 16.4941 32.9882 15.8672L33.5331 14.2148C33.7089 13.6875 33.5624 13.1016 33.1171 12.7676C32.8417 12.5625 32.5546 12.3691 32.2617 12.1875L31.9511 12.0117C31.6581 11.8477 31.3535 11.7012 31.0371 11.5664C30.5273 11.3496 29.9472 11.5137 29.5722 11.9297L28.4121 13.2305C28.0136 13.166 27.6035 13.1309 27.1874 13.1309C26.7714 13.1309 26.3613 13.166 25.9628 13.2305L24.8027 11.9297C24.4335 11.5137 23.8535 11.3496 23.3378 11.5664C23.0273 11.7012 22.7226 11.8477 22.4238 12.0117L22.1191 12.1875C21.8203 12.3633 21.539 12.5566 21.2636 12.7676C20.8183 13.1016 20.6718 13.6875 20.8476 14.2148L21.3925 15.8672C20.8769 16.4941 20.455 17.2148 20.1679 17.9883L18.4628 18.3398C17.9179 18.4512 17.4843 18.873 17.4199 19.4238C17.373 19.8164 17.3496 20.2148 17.3496 20.6191C17.3496 21.0234 17.373 21.4219 17.4199 21.8145C17.4843 22.3652 17.9238 22.7871 18.4628 22.8984L20.1679 23.2559C20.4609 24.0352 20.8769 24.75 21.3925 25.377L20.8476 27.0293C20.6718 27.5566 20.8183 28.1426 21.2636 28.4766C21.539 28.6816 21.8203 28.875 22.1191 29.0508L22.4355 29.2324C22.7285 29.3965 23.0331 29.543 23.3437 29.6777C23.8535 29.8945 24.4335 29.7305 24.8085 29.3145L25.9687 28.0137C26.3671 28.0781 26.7773 28.1133 27.1933 28.1133C27.6093 28.1133 28.0195 28.0781 28.4179 28.0137L29.5781 29.3145L29.5722 29.3262ZM27.1874 17.8125C27.5568 17.8125 27.9225 17.8852 28.2637 18.0266C28.605 18.1679 28.915 18.3751 29.1762 18.6363C29.4373 18.8974 29.6445 19.2075 29.7859 19.5487C29.9272 19.8899 29.9999 20.2557 29.9999 20.625C29.9999 20.9943 29.9272 21.3601 29.7859 21.7013C29.6445 22.0425 29.4373 22.3526 29.1762 22.6137C28.915 22.8749 28.605 23.0821 28.2637 23.2234C27.9225 23.3648 27.5568 23.4375 27.1874 23.4375C26.8181 23.4375 26.4524 23.3648 26.1111 23.2234C25.7699 23.0821 25.4599 22.8749 25.1987 22.6137C24.9375 22.3526 24.7304 22.0425 24.589 21.7013C24.4477 21.3601 24.3749 20.9943 24.3749 20.625C24.3749 20.2557 24.4477 19.8899 24.589 19.5487C24.7304 19.2075 24.9375 18.8974 25.1987 18.6363C25.4599 18.3751 25.7699 18.1679 26.1111 18.0266C26.4524 17.8852 26.8181 17.8125 27.1874 17.8125Z" fill="#102A43"/>
</g>
<defs>
<clipPath id="clip0_2152_10675">
<path d="M0 0H37.5V30H0V0Z" fill="white"/>
</clipPath>
</defs>
</svg>
