<svg width="24" height="24" viewBox="0 0 24 24" fill="none" xmlns="http://www.w3.org/2000/svg">
<path d="M10.6164 4.35448C11.2867 6.36541 10.6023 8.3951 9.08825 8.89198C7.57418 9.38885 5.80231 8.16073 5.132 6.14979C4.46168 4.13885 5.14606 2.10916 6.66012 1.61229C8.17418 1.11541 9.94606 2.34354 10.6164 4.35448ZM4.70543 9.30917C5.59137 10.8279 5.37575 12.5951 4.22731 13.2514C3.07887 13.9076 1.42887 13.2092 0.547621 11.6904C-0.333629 10.1717 -0.127379 8.40448 1.02106 7.74823C2.1695 7.09198 3.8195 7.79041 4.70075 9.30917H4.70543ZM3.24293 18.806C5.69918 12.1826 10.0632 10.4998 11.9992 10.4998C13.9351 10.4998 18.2992 12.1826 20.7554 18.806C20.9242 19.2607 20.9992 19.7482 20.9992 20.2357V20.3107C20.9992 21.5201 20.0195 22.4998 18.8101 22.4998C18.2711 22.4998 17.7367 22.4342 17.2164 22.3029L13.0914 21.2717C12.3742 21.0935 11.6242 21.0935 10.907 21.2717L6.782 22.3029C6.26168 22.4342 5.72731 22.4998 5.18825 22.4998C3.97887 22.4998 2.99918 21.5201 2.99918 20.3107V20.2357C2.99918 19.7482 3.07418 19.2607 3.24293 18.806ZM19.7711 13.2514C18.6226 12.5951 18.407 10.8279 19.2929 9.30917C20.1789 7.79041 21.8242 7.09198 22.9726 7.74823C24.1211 8.40448 24.3367 10.1717 23.4507 11.6904C22.5648 13.2092 20.9195 13.9076 19.7711 13.2514ZM14.5351 8.89198C13.0211 8.3951 12.3367 6.36541 13.007 4.35448C13.6773 2.34354 15.4492 1.11541 16.9632 1.61229C18.4773 2.10916 19.1617 4.13885 18.4914 6.14979C17.8211 8.16073 16.0492 9.38885 14.5351 8.89198Z" fill="white"/>
</svg>
