<svg width="64" height="64" viewBox="0 0 64 64" fill="none" xmlns="http://www.w3.org/2000/svg">
<path d="M48 0C56.8366 0 64 7.16344 64 16V48C64 56.8366 56.8366 64 48 64H16C7.16344 64 0 56.8366 0 48V16C0 7.16344 7.16344 0 16 0H48Z" fill="#102A43"/>
<g clip-path="url(#clip0_2120_1222)">
<path d="M30.9922 19.2671C31.6438 19.0327 32.3563 19.0327 33.0125 19.2671L42.0125 22.4827C43.2031 22.9093 44 24.039 44 25.3093V36.6905C44 37.9562 43.2031 39.0905 42.0078 39.5171L33.0078 42.7327C32.3562 42.9671 31.6437 42.9671 30.9875 42.7327L21.9875 39.5171C20.7969 39.0905 20 37.9608 20 36.6905V25.3093C20 24.0437 20.7969 22.9093 21.9922 22.4827L30.9922 19.2671ZM32 22.0937L23.8578 24.9999L32 27.9062L40.1422 24.9999L32 22.0937ZM33.5 39.3718L41 36.6952V27.8827L33.5 30.5593V39.3718Z" fill="white"/>
</g>
<defs>
<clipPath id="clip0_2120_1222">
<path d="M20 19H44V43H20V19Z" fill="white"/>
</clipPath>
</defs>
</svg>
