<svg preserveAspectRatio="none" width="100%" height="100%" overflow="visible" style="display: block;" viewBox="0 0 258 258" fill="none" xmlns="http://www.w3.org/2000/svg">
<g id="Layer_1">
<path id="Vector" d="M220.274 32.2621C220.277 32.2593 220.275 32.2546 220.271 32.254C217.136 31.817 210.929 34.5384 209.306 30.7057C208.085 27.8113 210.023 25.5449 212.917 25.1421C218.259 24.3984 224.23 24.7143 229.648 23.7655C230.049 23.6953 230.459 23.6684 230.859 23.7459C233.692 24.2951 234.16 26.2458 234.109 28.9485C234.102 29.2855 234.042 29.6186 233.959 29.9455C232.743 34.7896 233.891 42.775 232.156 46.9391C230.995 49.7175 227.569 49.6288 225.884 47.3282C224.628 45.6148 225.461 41.512 225.542 39.2798C225.582 38.2723 224.627 38.3783 223.914 39.0905L193.915 69.0315C193.757 69.1893 193.603 69.356 193.506 69.557C192.746 71.125 194.605 72.8848 195.132 74.5113C200.052 89.6593 188.423 103.374 172.644 101.087C170.31 100.748 168.341 99.3992 166.349 98.7438C165.27 98.3888 164.146 98.8493 163.342 99.6524L144.436 118.546C143.195 119.786 142.948 121.682 143.555 123.328C148.891 137.8 135.727 150.836 121.291 145.578C119.648 144.98 117.758 145.23 116.523 146.467L97.3914 165.628C97.0509 165.969 96.7468 166.377 96.7793 166.858C96.8669 168.151 97.9541 170.152 98.1118 171.543C98.9649 179.175 93.355 186.411 85.5885 187.033C82.9235 187.246 80.9024 186.098 78.6932 185.824C77.7609 185.708 76.8774 186.154 76.2123 186.817L54.2085 208.768C53.0006 210.263 54.502 211.833 54.7067 213.431C56.1672 224.899 42.1288 232.074 34.0689 223.861C26.5481 216.195 32.0419 203.191 42.7499 203.205C44.6949 203.205 46.8515 204.331 47.9571 204.358C49.5608 204.39 66.7033 185.565 71.5789 181.122C72.1005 180.647 72.5455 180.052 72.3917 179.363C72.1262 178.173 71.2832 176.549 71.1474 175.544C69.6853 164.769 79.2983 157.627 88.8986 160.301C90.5323 160.756 92.3478 160.494 93.5462 159.294L112.755 140.062C113.095 139.722 113.417 139.32 113.408 138.84C113.383 137.599 112.182 136.153 111.823 134.864C108.56 123.198 117.781 111.538 129.983 113.129C131.588 113.34 135.145 115.016 136.79 115.315C137.261 115.401 137.677 115.14 138.016 114.801L158.205 94.6259C159.173 93.6586 159.596 92.2481 159.006 91.0135C158.485 89.9253 157.86 88.8738 157.473 87.666C152.689 72.6887 166.29 58.2848 181.482 62.1144C182.78 62.4389 185.98 64.3009 187.439 64.6933C187.854 64.8051 188.229 64.5732 188.532 64.2675L220.274 32.2621ZM185.359 90.3147C196.94 78.7574 178.991 60.8106 167.464 72.6682C156.135 84.3142 173.627 102.022 185.359 90.3147ZM121.35 136.824C130.317 145.207 143.121 132.147 134.958 123.464C126.12 114.05 112.191 128.27 121.35 136.824ZM83.2408 167.256C75.6858 168.71 77.5149 181.053 86.0662 179.298C93.4778 177.776 91.4577 165.679 83.2408 167.256ZM41.8695 210.68C35.9525 211.512 37.0649 221.267 44.1762 219.67C48.7556 218.639 48.312 209.772 41.8695 210.68Z" fill="url(#paint0_linear_0_58)"/>
<path id="Vector_2" d="M122.251 37.4091C122.247 37.4091 122.243 37.4117 122.242 37.4156L113.158 66.8083C113.055 67.1408 112.977 67.4933 113.09 67.8223C113.635 69.4035 116.558 71.6722 117.508 73.4735C123.246 84.3439 113.656 95.7876 102.577 94.0351C100.834 93.7593 98.9767 94.25 97.9172 95.6614L85.6647 111.983C84.7385 113.216 84.6514 114.86 85.1408 116.323C87.7224 124.041 83.2751 131.634 74.4369 132.297C73.1607 132.393 71.2771 131.007 70.0759 132.639L53.3425 154.918C53.0933 155.25 52.8714 155.626 52.9269 156.038C53.0708 157.103 54.0512 158.605 54.2085 159.774C55.6212 170.048 42.627 175.393 36.6623 167.625C31.2116 160.525 36.6395 151.823 44.4978 151.274C45.9601 151.172 47.4138 150.623 48.284 149.443L63.2455 129.161C64.1968 127.871 64.2265 126.153 63.6931 124.642C60.8491 116.586 67.1976 108.837 75.6503 109.292C77.2524 109.378 78.8925 108.856 79.858 107.575L92.1448 91.2666C93.1812 89.8909 93.1707 88.0228 92.4464 86.4601C88.3699 77.6648 93.3973 67.8439 102.875 66.1664C104.597 65.8617 106.161 64.7811 106.686 63.1131L114.574 38.0628C115.133 36.2888 114.349 34.3931 112.915 33.2077C97.8038 20.7085 115.736 -4.95106 133.095 7.2974C147.045 17.1412 138.992 38.3648 122.251 37.4091Z" fill="url(#paint1_linear_0_58)"/>
<g id="Vector_3">
<path d="M223.202 132.182C226.469 118.766 245.884 114.096 253.578 127.45C263.547 144.754 241.241 160.021 228.413 148.236C226.182 146.187 223.135 144.906 220.243 145.809L194.278 153.914C194.487 164.438 184.715 170.903 175.579 168.004C172.817 167.127 169.677 167.019 167.358 168.758L154.188 178.636C151.892 180.358 151.155 183.401 150.863 186.256C150.217 192.588 144.358 197.824 137.497 196.556C136.303 196.337 133.859 194.924 133.177 194.931C131.541 194.947 119.818 205.002 113.079 210.05C110.752 211.794 109.39 214.785 108.541 217.567C106.821 223.205 101.206 227.011 94.9112 224.339C84.5855 219.956 88.8025 203.505 100.964 205.512C102.003 205.684 102.907 206.478 103.783 206.751C104.433 206.953 105.071 206.562 105.619 206.157L125.031 191.817C127.285 190.151 128.068 187.234 128.219 184.436C128.604 177.311 135.082 172.685 142.165 174.1C144.74 174.614 147.546 174.549 149.636 172.958L162.955 162.815C165.33 161.006 166.028 157.822 166.005 154.837C165.923 144.323 178.302 136.084 188.061 142.913C189.316 143.796 190.595 145.925 192.04 146.54C192.571 146.766 193.165 146.622 193.717 146.451L217.699 139.035C220.674 138.116 222.466 135.207 223.202 132.182Z" fill="var(--fill-0, #E5E7EB)"/>
<path d="M223.202 132.182C226.469 118.766 245.884 114.096 253.578 127.45C263.547 144.754 241.241 160.021 228.413 148.236C226.182 146.187 223.135 144.906 220.243 145.809L194.278 153.914C194.487 164.438 184.715 170.903 175.579 168.004C172.817 167.127 169.677 167.019 167.358 168.758L154.188 178.636C151.892 180.358 151.155 183.401 150.863 186.256C150.217 192.588 144.358 197.824 137.497 196.556C136.303 196.337 133.859 194.924 133.177 194.931C131.541 194.947 119.818 205.002 113.079 210.05C110.752 211.794 109.39 214.785 108.541 217.567C106.821 223.205 101.206 227.011 94.9112 224.339C84.5855 219.956 88.8025 203.505 100.964 205.512C102.003 205.684 102.907 206.478 103.783 206.751C104.433 206.953 105.071 206.562 105.619 206.157L125.031 191.817C127.285 190.151 128.068 187.234 128.219 184.436C128.604 177.311 135.082 172.685 142.165 174.1C144.74 174.614 147.546 174.549 149.636 172.958L162.955 162.815C165.33 161.006 166.028 157.822 166.005 154.837C165.923 144.323 178.302 136.084 188.061 142.913C189.316 143.796 190.595 145.925 192.04 146.54C192.571 146.766 193.165 146.622 193.717 146.451L217.699 139.035C220.674 138.116 222.466 135.207 223.202 132.182Z" stroke="var(--stroke-0, #E5E7EB)"/>
</g>
<path id="Vector_4" d="M57.8256 29.1832L59.0335 29.0603C64.4796 34.3714 69.8916 39.7438 75.2558 45.1709L75.2012 46.5567C73.3995 50.0723 72.5191 51.2192 68.5608 52.6869L66.916 52.5162C61.9204 47.6694 56.9247 42.8226 51.9222 37.9758L51.697 36.3374C53.021 32.378 53.9764 31.0878 57.8256 29.1832Z" fill="var(--fill-0, #3B83E3)"/>
<path id="Vector_5" d="M231.009 202.406C229.036 206.385 227.979 207.211 223.856 208.536L222.205 208.331L207.709 193.831L207.505 192.179C208.658 188.8 210.501 186.705 213.633 185.025L214.882 184.861C220.478 190.248 225.89 195.763 231.111 201.423L231.002 202.399L231.009 202.406Z" fill="var(--fill-0, #3B83E3)"/>
<path id="Vector_6" d="M231.009 202.406L213.64 185.032C224.894 178.998 236.905 190.48 231.009 202.406Z" fill="var(--fill-0, #3786E2)"/>
<g id="Vector_7">
<path d="M64.4259 35.7865C61.1844 32.5442 62.4023 26.933 66.8966 27.8383C71.849 28.836 75.6975 32.6959 76.6369 37.6313C77.4871 42.0984 71.8998 43.2622 68.6847 40.0463L64.4259 35.7865Z" fill="var(--fill-0, #E5E7EB)"/>
<path d="M64.4259 35.7865C61.1844 32.5442 62.4023 26.933 66.8966 27.8383C71.849 28.836 75.6975 32.6959 76.6369 37.6313C77.4871 42.0984 71.8998 43.2622 68.6847 40.0463L64.4259 35.7865Z" stroke="var(--stroke-0, #E5E7EB)"/>
</g>
<path id="Vector_8" d="M168.686 205.983L170.051 205.908C170.87 206.311 182.547 217.977 182.936 218.796C183.181 219.315 183.188 219.677 182.984 220.291C181.462 223.022 180.076 224.544 176.855 225.404C176.159 225.37 175.545 225.261 174.917 224.913C174.241 224.531 164.291 214.578 163.909 213.902L163.574 212.12C164.441 208.891 165.949 207.512 168.686 205.99V205.983Z" fill="var(--fill-0, #4F72EA)"/>
<path id="Vector_9" d="M54.761 93.0519C54.3993 93.2567 53.8465 93.5434 53.6145 93.3318C49.9906 90.096 42.4698 82.6961 39.7331 78.9688L39.9446 77.7196C50.2704 70.7702 62.3706 83.0374 54.761 93.0519Z" fill="var(--fill-0, #4D74E9)"/>
<path id="Vector_10" d="M54.7611 93.052C52.8297 95.5915 51.2669 96.4926 48.1207 97.1411C46.2439 96.2537 44.49 94.6836 42.8657 92.4172C39.7878 90.0552 37.4537 87.3724 35.8636 84.3687C36.5187 81.4333 37.3923 79.4468 39.9516 77.7266L54.768 93.0589L54.7611 93.052Z" fill="var(--fill-0, #4F71EA)"/>
<path id="Vector_11" d="M68.554 52.6869C57.8665 56.6463 48.039 47.2598 51.697 36.3374L68.554 52.6869Z" fill="var(--fill-0, #3F7FE5)"/>
<path id="Vector_12" d="M223.856 208.536C213.203 211.956 203.881 202.795 207.511 192.187L223.856 208.536Z" fill="var(--fill-0, #3F7FE5)"/>
<path id="Vector_13" d="M182.99 220.291L168.686 205.983C178.233 200.658 188.252 210.843 182.99 220.291Z" fill="var(--fill-0, #4C74E9)"/>
<path id="Vector_14" d="M176.855 225.404C167.99 227.766 161.22 220.892 163.574 212.12L176.855 225.404Z" fill="var(--fill-0, #526FEB)"/>
<path id="Vector_15" d="M48.1208 97.141C40.4704 98.7111 34.1848 91.8709 35.8637 84.3686C39.549 87.8638 43.4391 91.3248 46.8583 95.093C47.4316 95.7279 48.1345 96.1375 48.1277 97.1478L48.1208 97.141Z" fill="var(--fill-0, #526FEB)"/>
<g id="div">
<rect x="34.4568" y="72.3677" width="25" height="25" rx="12.5" fill="var(--fill-0, #E5E7EB)"/>
<rect x="34.4568" y="72.3677" width="25" height="25" rx="12.5" stroke="var(--stroke-0, #E5E7EB)"/>
</g>
<g id="div_2">
<rect x="46.9568" y="22.8736" width="36" height="36" rx="18" fill="var(--fill-0, #E5E7EB)"/>
<rect x="46.9568" y="22.8736" width="36" height="36" rx="18" stroke="var(--stroke-0, #E5E7EB)"/>
</g>
</g>
<defs>
<linearGradient id="paint0_linear_0_58" x1="356.242" y1="125.526" x2="155.093" y2="297.865" gradientUnits="userSpaceOnUse">
<stop stop-color="#1B9DD9"/>
<stop offset="1" stop-color="#063482"/>
</linearGradient>
<linearGradient id="paint1_linear_0_58" x1="203.7" y1="87.6968" x2="63.6324" y2="163.671" gradientUnits="userSpaceOnUse">
<stop stop-color="#1B9DD9"/>
<stop offset="1" stop-color="#063482"/>
</linearGradient>
</defs>
</svg>
