<svg width="27" height="24" viewBox="0 0 27 24" fill="none" xmlns="http://www.w3.org/2000/svg">
<g clip-path="url(#clip0_2152_11240)">
<path d="M25.6682 4.86563L22.9822 0.614063C22.7432 0.234375 22.3166 0 21.8619 0H5.13691C4.68222 0 4.25566 0.234375 4.0166 0.614063L1.32597 4.86563C-0.0615295 7.05938 1.1666 10.1109 3.75878 10.4625C3.94628 10.4859 4.13847 10.5 4.32597 10.5C5.54941 10.5 6.63691 9.96562 7.38222 9.14062C8.12753 9.96562 9.21503 10.5 10.4385 10.5C11.6619 10.5 12.7494 9.96562 13.4947 9.14062C14.24 9.96562 15.3275 10.5 16.551 10.5C17.7791 10.5 18.8619 9.96562 19.6072 9.14062C20.3572 9.96562 21.44 10.5 22.6635 10.5C22.8557 10.5 23.0432 10.4859 23.2307 10.4625C25.8322 10.1156 27.065 7.06406 25.6728 4.86563H25.6682ZM23.4228 11.9484H23.4182C23.1697 11.9812 22.9166 12 22.6588 12C22.0775 12 21.5197 11.9109 20.9994 11.7516V18H5.99941V11.7469C5.47441 11.9109 4.91191 12 4.33066 12C4.07285 12 3.81503 11.9812 3.5666 11.9484H3.56191C3.36972 11.9203 3.18222 11.8875 2.99941 11.8406V18V21C2.99941 22.6547 4.34472 24 5.99941 24H20.9994C22.6541 24 23.9994 22.6547 23.9994 21V18V11.8406C23.8119 11.8875 23.6244 11.925 23.4228 11.9484Z" fill="#1B9DD9"/>
</g>
<defs>
<clipPath id="clip0_2152_11240">
<path d="M0 0H27V24H0V0Z" fill="white"/>
</clipPath>
</defs>
</svg>
