<svg width="36" height="36" viewBox="0 0 36 36" fill="none" xmlns="http://www.w3.org/2000/svg">
<path d="M27.0001 0C31.9706 0.000112584 35.9995 4.0299 35.9995 9.00037V27.0001C35.9994 31.9705 31.9705 35.9994 27.0001 35.9995H9.00037C4.02989 35.9995 0.00010943 31.9706 0 27.0001V9.00037C0 4.02983 4.02983 0 9.00037 0H27.0001Z" fill="#DCFCE7"/>
<path d="M27.0001 0C31.9706 0.000112584 35.9995 4.0299 35.9995 9.00037V27.0001C35.9994 31.9705 31.9705 35.9994 27.0001 35.9995H9.00037C4.02989 35.9995 0.00010943 31.9706 0 27.0001V9.00037C0 4.02983 4.02983 0 9.00037 0H27.0001Z" stroke="#E5E7EB"/>
<path d="M28.1248 31.5H7.8752V4.49988H28.1248V31.5Z" stroke="#E5E7EB"/>
<g clip-path="url(#clip0_2058_4162)">
<path d="M21.3746 14.6251C20.7523 14.6251 20.2496 14.1224 20.2496 13.5001C20.2496 12.8779 20.7523 12.3751 21.3746 12.3751H26.9995C27.6218 12.3751 28.1245 12.8779 28.1245 13.5001V19.1251C28.1245 19.7474 27.6218 20.2501 26.9995 20.2501C26.3773 20.2501 25.8745 19.7474 25.8745 19.1251V16.2177L19.9191 22.1696C19.4796 22.6091 18.766 22.6091 18.3265 22.1696L14.6246 18.4677L9.79413 23.2946C9.35467 23.7341 8.641 23.7341 8.20155 23.2946C7.7621 22.8552 7.7621 22.1415 8.20155 21.7021L13.8265 16.0771C14.266 15.6376 14.9797 15.6376 15.4191 16.0771L19.1246 19.7825L24.282 14.6251H21.3746Z" fill="#16A34A"/>
</g>
<defs>
<clipPath id="clip0_2058_4162">
<path d="M7.87495 9.00031H28.1249V27.0003H7.87495V9.00031Z" fill="white"/>
</clipPath>
</defs>
</svg>
