<svg width="32" height="32" viewBox="0 0 32 32" fill="none" xmlns="http://www.w3.org/2000/svg">
<rect width="32" height="32" rx="4" fill="#102A43" fill-opacity="0.1"/>
<g clip-path="url(#clip0_2152_10212)">
<path d="M9.25 9.5C8.83437 9.5 8.5 9.83437 8.5 10.25V11.75C8.5 12.1656 8.83437 12.5 9.25 12.5H10.75C11.1656 12.5 11.5 12.1656 11.5 11.75V10.25C11.5 9.83437 11.1656 9.5 10.75 9.5H9.25ZM14 10C13.4469 10 13 10.4469 13 11C13 11.5531 13.4469 12 14 12H23C23.5531 12 24 11.5531 24 11C24 10.4469 23.5531 10 23 10H14ZM14 15C13.4469 15 13 15.4469 13 16C13 16.5531 13.4469 17 14 17H23C23.5531 17 24 16.5531 24 16C24 15.4469 23.5531 15 23 15H14ZM14 20C13.4469 20 13 20.4469 13 21C13 21.5531 13.4469 22 14 22H23C23.5531 22 24 21.5531 24 21C24 20.4469 23.5531 20 23 20H14ZM8.5 15.25V16.75C8.5 17.1656 8.83437 17.5 9.25 17.5H10.75C11.1656 17.5 11.5 17.1656 11.5 16.75V15.25C11.5 14.8344 11.1656 14.5 10.75 14.5H9.25C8.83437 14.5 8.5 14.8344 8.5 15.25ZM9.25 19.5C8.83437 19.5 8.5 19.8344 8.5 20.25V21.75C8.5 22.1656 8.83437 22.5 9.25 22.5H10.75C11.1656 22.5 11.5 22.1656 11.5 21.75V20.25C11.5 19.8344 11.1656 19.5 10.75 19.5H9.25Z" fill="#1B9DD9"/>
</g>
<defs>
<clipPath id="clip0_2152_10212">
<path d="M8 8H24V24H8V8Z" fill="white"/>
</clipPath>
</defs>
</svg>
