<svg width="18" height="20" viewBox="0 0 18 20" fill="none" xmlns="http://www.w3.org/2000/svg">
<g clip-path="url(#clip0_2152_10346)">
<path d="M13.75 15H2.5L0.210938 6.98828C0.0703125 6.5 0 5.99219 0 5.48047C0 2.45312 2.45312 0 5.48047 0H5.61328C8.19141 0 10.4375 1.75391 11.0625 4.25391L12.2891 9.16797L12.9766 8.38281C13.4688 7.82031 14.1758 7.5 14.9219 7.5H15.0312C16.3945 7.5 17.5039 8.60547 17.5039 9.97266C17.5039 10.5938 17.2695 11.1914 16.8477 11.6484L13.75 15ZM1.25 17.5C1.25 16.8086 1.80859 16.25 2.5 16.25H13.75C14.4414 16.25 15 16.8086 15 17.5V18.75C15 19.4414 14.4414 20 13.75 20H2.5C1.80859 20 1.25 19.4414 1.25 18.75V17.5Z" fill="#1B9DD9"/>
</g>
<defs>
<clipPath id="clip0_2152_10346">
<path d="M0 0H17.5V20H0V0Z" fill="white"/>
</clipPath>
</defs>
</svg>
