<svg width="18" height="20" viewBox="0 0 18 20" fill="none" xmlns="http://www.w3.org/2000/svg">
<g clip-path="url(#clip0_2152_10298)">
<path d="M17.5008 8.19961C15.781 8.20372 14.1035 7.6674 12.7051 6.66641V13.6477C12.7046 14.9407 12.3094 16.2027 11.5723 17.265C10.8352 18.3274 9.79134 19.1393 8.58031 19.5924C7.36928 20.0455 6.04879 20.118 4.79542 19.8003C3.54205 19.4826 2.41554 18.7899 1.56651 17.8147C0.71749 16.8395 0.186423 15.6283 0.0443251 14.3431C-0.0977731 13.058 0.155871 11.76 0.771341 10.6229C1.38681 9.48578 2.33477 8.56366 3.48846 7.97983C4.64216 7.39601 5.94659 7.17832 7.22735 7.35586V10.8672C6.64127 10.6828 6.01193 10.6884 5.4292 10.8831C4.84647 11.0777 4.34015 11.4515 3.98254 11.9511C3.62493 12.4507 3.43433 13.0505 3.43795 13.6649C3.44157 14.2793 3.63922 14.8768 4.00269 15.3721C4.36616 15.8675 4.87685 16.2353 5.46183 16.4231C6.04682 16.6109 6.67618 16.609 7.26004 16.4178C7.84391 16.2265 8.35241 15.8557 8.71294 15.3582C9.07348 14.8607 9.2676 14.262 9.26758 13.6477V0H12.7051C12.7027 0.290289 12.727 0.580182 12.7777 0.866016C12.8972 1.50409 13.1456 2.1111 13.5076 2.6499C13.8697 3.1887 14.3379 3.64796 14.8836 3.99961C15.6599 4.51293 16.5701 4.78652 17.5008 4.78633V8.19961Z" fill="#1B9DD9"/>
</g>
<defs>
<clipPath id="clip0_2152_10298">
<path d="M0 0H17.5V20H0V0Z" fill="white"/>
</clipPath>
</defs>
</svg>
